<?xml version="1.0" standalone="no"?>
<!DOCTYPE svg PUBLIC "-//W3C//DTD SVG 1.1//EN" "http://www.w3.org/Graphics/SVG/1.1/DTD/svg11.dtd" >
<!--
2013-9-30: Created.
-->
<svg>
<metadata>
Created by iconfont
</metadata>
<defs>

<font id="iconfont" horiz-adv-x="1024" >
  <font-face
    font-family="iconfont"
    font-weight="500"
    font-stretch="normal"
    units-per-em="1024"
    ascent="896"
    descent="-128"
  />
    <missing-glyph />
    
    <glyph glyph-name="3-linshigong" unicode="&#59399;" d="M346.112 699.733333v-85.333333h-89.9072c-8.9088 0-16.2304-6.741333-17.169067-15.394133l-0.1024-1.877334v-494.523733c0-8.9088 6.741333-16.2304 15.394134-17.169067l1.877333-0.1024h494.523733c8.9088 0 16.2304 6.741333 17.169067 15.394134l0.1024 1.877333V597.128533c0 8.9088-6.741333 16.2304-15.394133 17.169067l-1.877334 0.1024H657.066667v85.333333h93.661866c55.381333 0 100.522667-43.861333 102.536534-98.7648l0.068266-3.84v-494.523733c0-55.381333-43.861333-100.522667-98.7648-102.536533l-3.84-0.068267H256.2048a102.6048 102.6048 0 0 0-102.536533 98.7648L153.6 102.6048V597.128533c0 55.381333 43.861333 100.522667 98.7648 102.536534l3.84 0.068266h89.9072zM605.866667 768h-204.8A76.8 76.8 0 0 1 324.266667 691.2v-68.266667a76.8 76.8 0 0 1 76.8-76.8h204.8A76.8 76.8 0 0 1 682.666667 622.933333v68.266667a76.8 76.8 0 0 1-76.8 76.8z m-8.533334-85.333333v-51.2H409.6v51.2h187.733333zM640 733.866667a42.666667 42.666667 0 0 0 42.581333-39.867734L682.666667 691.2v-68.266667a42.666667 42.666667 0 0 0-85.248-2.798933L597.333333 622.933333v68.266667a42.666667 42.666667 0 0 0 42.666667 42.666667z m-273.066667 0a42.666667 42.666667 0 0 0 42.581334-39.867734L409.6 691.2v-68.266667a42.666667 42.666667 0 0 0-85.248-2.798933L324.266667 622.933333v68.266667a42.666667 42.666667 0 0 0 42.666666 42.666667zM512 486.4c103.68 0 187.733333-84.053333 187.733333-187.733333s-84.053333-187.733333-187.733333-187.733334-187.733333 84.053333-187.733333 187.733334 84.053333 187.733333 187.733333 187.733333z m0-85.333333a102.4 102.4 0 1 1 0-204.8 102.4 102.4 0 0 1 0 204.8zM512 366.933333a25.6 25.6 0 0 0 25.480533-23.1424l0.119467-2.4576V315.733333H563.2a25.6 25.6 0 0 0 25.480533-23.1424l0.119467-2.4576a25.6 25.6 0 0 0-23.1424-25.480533L563.2 264.533333h-51.2a25.6 25.6 0 0 0-25.480533 23.1424L486.4 290.133333v51.2A25.6 25.6 0 0 0 512 366.933333zM512 332.8a25.6 25.6 0 0 0 25.480533-23.1424l0.119467-2.4576v-17.066667a25.6 25.6 0 0 0-51.080533-2.4576L486.4 290.133333v17.066667A25.6 25.6 0 0 0 512 332.8z"  horiz-adv-x="1024" />

    
    <glyph glyph-name="4-yunyingkanban" unicode="&#59400;" d="M440.2688 740.352C253.525333 708.164267 122.897067 537.8048 140.2368 349.098667c17.169067-186.692267 173.4144-329.3184 360.226133-330.069334l8.533334 0.017067c177.169067 3.037867 326.229333 131.754667 354.935466 305.851733a42.666667 42.666667 0 0 1-42.632533 49.6128l-323.618133-4.061866h-3.7376v4.266666l-3.754667 324.113067a42.666667 42.666667 0 0 1-49.92 41.557333zM405.504 643.072l3.140267-268.868267v-46.421333a42.666667 42.666667 0 0 1 42.666666-42.666667h46.916267l268.356267 3.3792-0.238934-0.7168a280.081067 280.081067 0 0 0-258.048-183.3984h-2.2528c-145.5104-1.809067-267.537067 108.1344-280.814933 252.5184-11.52 125.405867 62.344533 240.196267 175.5648 284.381867l4.7104 1.792zM447.197867 732.398933a42.666667 42.666667 0 0 0 43.1616-42.154666l0.426666-36.983467v-46.933333c0-54.613333-79.7696-57.361067-85.077333-4.949334l-0.221867 3.140267-0.426666 9.898667c-0.068267 1.8944-0.034133 3.754667 0.119466 5.5808l0.256 2.167466v30.600534l-0.4096 36.471466a42.666667 42.666667 0 0 0 42.171734 43.178667zM595.933867 733.405867a42.666667 42.666667 0 0 1-42.666667-43.2128l2.816-222.344534a42.666667 42.666667 0 0 1 43.178667-42.120533l219.528533 2.645333a42.666667 42.666667 0 0 1 42.154667 42.666667v8.157867c-1.757867 139.5712-115.882667 251.323733-256.682667 254.1568l-8.328533 0.0512z m43.246933-89.838934l2.491733-0.580266c64.119467-15.479467 114.312533-64.887467 129.348267-127.368534l0.546133-2.474666-130.7136-1.570134-1.672533 131.9936zM662.920533 510.464a42.666667 42.666667 0 0 0 3.822934-85.213867l-2.798934-0.119466-49.9712-0.6144a42.666667 42.666667 0 0 0-3.84 85.213866l2.816 0.119467 49.9712 0.597333z"  horiz-adv-x="1024" />

    
    <glyph glyph-name="2-dianzishenhe" unicode="&#59401;" d="M529.066667 819.2c-164.949333 0-298.666667-133.717333-298.666667-298.666667S364.117333 221.866667 529.066667 221.866667 827.733333 355.584 827.733333 520.533333 694.016 819.2 529.066667 819.2z m0-85.333333c117.828267 0 213.333333-95.505067 213.333333-213.333334S646.894933 307.2 529.066667 307.2 315.733333 402.705067 315.733333 520.533333 411.2384 733.866667 529.066667 733.866667zM619.0592 545.655467a42.666667 42.666667 0 0 0 62.4128-58.094934l-2.082133-2.235733-118.152534-118.152533a42.666667 42.666667 0 0 0-62.4128 58.112l2.082134 2.218666 118.152533 118.152534zM497.578667 670.173867a42.666667 42.666667 0 0 0 62.429866-58.112l-2.082133-2.218667-118.152533-118.1696a42.666667 42.666667 0 0 0-62.429867 58.112l2.082133 2.218667 118.152534 118.1696zM379.426133 552.021333a42.666667 42.666667 0 0 0 58.112 2.065067l2.218667-2.065067 118.1696-118.152533a42.666667 42.666667 0 0 0-58.112-62.429867l-2.218667 2.082134-118.1696 118.152533a42.666667 42.666667 0 0 0 0 60.347733zM385.501867 556.782933a42.666667 42.666667 0 0 0 62.4128-58.112l-2.082134-2.218666-6.058666-6.075734a42.666667 42.666667 0 0 0-62.429867 58.112l2.082133 2.218667 6.075734 6.075733zM497.578667 670.173867a42.666667 42.666667 0 0 0 58.112 2.082133l2.218666-2.082133 118.1696-118.152534a42.666667 42.666667 0 0 0-58.112-62.429866l-2.218666 2.082133-118.1696 118.152533a42.666667 42.666667 0 0 0 0 60.347734zM569.9584 438.749867a42.666667 42.666667 0 0 0 2.082133-58.112l-2.082133-2.218667-10.717867-10.734933a42.666667 42.666667 0 0 0-62.429866 58.112l2.082133 2.218666 10.734933 10.752a42.666667 42.666667 0 0 0 60.330667 0z m112.605867 111.957333a42.666667 42.666667 0 0 0 2.082133-58.112l-2.082133-2.218667-9.642667-9.659733a42.666667 42.666667 0 0 0-62.4128 58.112l2.082133 2.218667 9.642667 9.659733a42.666667 42.666667 0 0 0 60.330667 0zM229.5808 314.112c138.171733 36.266667 266.461867-2.628267 379.8528-113.629867a42.666667 42.666667 0 1 0-59.6992-60.9792c-92.706133 90.760533-190.5152 120.4224-298.478933 92.074667-1.911467-0.512-4.010667-1.109333-6.280534-1.792l-7.355733-2.338133-8.379733-2.901334-9.4208-3.4304-5.0688-1.928533a42.666667 42.666667 0 0 0-30.549334 79.684267l11.707734 4.369066 5.495466 1.979734 10.2912 3.5328c6.5536 2.1504 12.509867 3.925333 17.885867 5.358933zM707.515733 239.701333c55.381333 34.542933 100.061867 50.517333 136.192 43.1104 51.968-10.615467 67.857067-58.146133 54.613334-118.1184-2.7648-12.5952-10.018133-25.463467-23.6032-44.168533l-6.212267-8.3968c-92.0576-115.3536-220.757333-166.4-381.064533-152.32-156.910933 13.7728-274.056533 64.733867-348.962134 154.3168a42.666667 42.666667 0 1 0 65.467734 54.7328c58.743467-70.280533 154.914133-112.093867 290.952533-124.040533 132.642133-11.639467 233.2672 28.2624 306.141867 119.552l4.573866 6.1952 3.857067 5.461333 1.655467 2.440533 2.7648 4.3008 1.621333 2.833067 0.238933 1.092267c0.682667 3.515733 1.1776 6.724267 1.467734 9.608533l0.1536 2.0992-1.467734-0.375467c-12.475733-3.242667-33.0752-12.3392-58.88-28.040533l-4.334933-2.679467c-115.729067-72.192-252.757333-80.6912-407.552-27.0848a42.666667 42.666667 0 0 0 27.921067 80.622934c129.024-44.663467 237.4656-39.048533 328.669866 15.325866l5.802667 3.5328zM498.8928 670.173867a42.666667 42.666667 0 0 0 58.112 2.082133l2.218667-2.082133 8.260266-8.260267a42.666667 42.666667 0 0 0-58.112-62.4128l-2.218666 2.082133-8.260267 8.2432a42.666667 42.666667 0 0 0 0 60.347734z"  horiz-adv-x="1024" />

    
    <glyph glyph-name="5-xiaoshoukanban" unicode="&#59402;" d="M768 708.266667a85.333333 85.333333 0 0 0 85.333333-85.333334v-375.466666a85.333333 85.333333 0 0 0-85.333333-85.333334H256a85.333333 85.333333 0 0 0-85.333333 85.333334V622.933333a85.333333 85.333333 0 0 0 85.333333 85.333334h512z m0-85.333334H256v-375.466666h512V622.933333zM349.866667 375.466667a42.666667 42.666667 0 0 0 42.581333-39.867734L392.533333 332.8v-17.066667a42.666667 42.666667 0 0 0-85.248-2.798933L307.2 315.733333v17.066667a42.666667 42.666667 0 0 0 42.666667 42.666667zM486.4 392.533333a42.666667 42.666667 0 0 0 42.581333-39.867733L529.066667 349.866667v-34.133334a42.666667 42.666667 0 0 0-85.248-2.798933L443.733333 315.733333v34.133334a42.666667 42.666667 0 0 0 42.666667 42.666666zM631.466667 426.666667a42.666667 42.666667 0 0 0 42.581333-39.867734L674.133333 384v-68.266667a42.666667 42.666667 0 0 0-85.248-2.798933L588.8 315.733333v68.266667a42.666667 42.666667 0 0 0 42.666667 42.666667zM679.9872 565.435733a34.133333 34.133333 0 0 0 41.710933-53.9648l-2.218666-1.706666-144.418134-102.4a34.133333 34.133333 0 0 0-41.4208 1.467733l-2.1504 1.928533-72.448 70.638934-116.292266-74.9056a34.133333 34.133333 0 0 0-45.568 7.936l-1.621334 2.286933a34.133333 34.133333 0 0 0 7.936 45.568l2.286934 1.621333 139.1616 89.6a34.133333 34.133333 0 0 0 40.106666-2.286933l2.2016-1.979733 71.5264-69.7344 121.207467 85.930666zM618.154667 588.5952l84.5824-9.352533a34.133333 34.133333 0 0 0-4.949334-68.027734l-2.542933 0.170667-84.599467 9.352533A34.133333 34.133333 0 0 0 615.594667 588.8l2.56-0.187733zM705.262933 569.344a34.133333 34.133333 0 0 0 32.512-33.143467l-0.017066-2.56-3.925334-82.978133a34.133333 34.133333 0 0 0-68.215466 0.682667l0.017066 2.525866 3.925334 82.9952a34.133333 34.133333 0 0 0 33.160533 32.512l2.56-0.017066zM675.259733 582.1952l2.56-0.187733 24.917334-2.7648a34.133333 34.133333 0 0 0-4.949334-68.027734l-2.542933 0.170667-24.917333 2.7648a34.133333 34.133333 0 0 0 4.949333 68.0448zM434.107733 548.369067a34.133333 34.133333 0 0 0 41.710934-53.9648l-2.218667-1.706667-17.749333-12.5952a34.133333 34.133333 0 0 0-41.693867 53.981867l2.218667 1.706666 17.749333 12.578134zM802.133333 119.466667a42.666667 42.666667 0 0 0 2.798934-85.248L802.133333 34.133333H238.933333a42.666667 42.666667 0 0 0-2.798933 85.248L238.933333 119.466667h563.2z"  horiz-adv-x="1024" />

    
    <glyph glyph-name="6-xiaoshoukanban" unicode="&#59403;" d="M744.721067 750.933333c61.781333 0 114.7904-42.973867 117.077333-100.7104l0.068267-3.874133v-77.397333a42.666667 42.666667 0 0 0-85.248-2.798934l-0.085334 2.798934v77.397333c0 8.226133-11.3152 18.090667-28.672 19.1488l-3.140266 0.1024H279.278933c-18.0736 0-30.378667-9.386667-31.6928-17.783467l-0.119466-1.467733v-541.764267c0-8.226133 11.3152-18.090667 28.672-19.1488l3.140266-0.1024h186.180267a42.666667 42.666667 0 0 0 2.798933-85.248l-2.798933-0.085333h-186.197333c-61.7472 0-114.773333 42.973867-117.060267 100.7104l-0.068267 3.874133V646.3488c0 58.385067 51.677867 102.621867 113.032534 104.516267l4.096 0.068266h465.4592zM734.839467 503.296l-2.4576 0.170667h-7.458134c-75.7248 0-136.6528-62.293333-136.6528-138.461867l0.085334-4.949333a139.690667 139.690667 0 0 1 42.820266-95.4368l0.6656-0.631467-0.1024-2.218667c-0.768-11.776-3.618133-21.9648-8.055466-27.818666l-0.477867-0.529067h-17.954133A76.288 76.288 0 0 1 529.066667 157.013333v-77.482666c0-41.198933 33.058133-76.3904 76.1856-76.3904H846.677333a74.922667 74.922667 0 0 1 19.729067 2.440533 72.277333 72.277333 0 0 1 33.911467 19.626667c16.264533 16.6912 21.2992 35.259733 21.2992 55.1936V157.013333l-0.085334 3.515734c-1.809067 39.68-34.2016 72.874667-76.117333 72.874666l-14.592 0.017067-0.136533 0.170667c-4.522667 5.768533-7.441067 16.2816-8.0896 29.457066l-0.136534 4.5056 1.9968 2.048c30.737067 33.1776 43.8272 80.213333 33.877334 125.781334-13.2096 59.392-63.488 103.560533-123.477334 107.912533zM729.941333 435.2c29.5936-2.133333 55.022933-24.405333 61.696-54.357333 6.263467-28.672-5.000533-58.197333-28.330666-74.461867l-6.690134-4.283733-0.836266-8.1408-0.597334-5.5296-0.529066-6.877867-0.256-5.205333a204.288 204.288 0 0 1-0.068267-2.781867l-0.0512-5.8368c0.034133-4.027733 0.187733-8.277333 0.512-12.680533l0.648533-6.7072c3.515733-30.583467 16.264533-66.1504 54.135467-81.92l3.328-1.28h32.529067A8.021333 8.021333 0 0 0 853.333333 157.013333v-76.629333c0-7.441067-2.4576-8.772267-5.751466-8.96H605.252267A8.021333 8.021333 0 0 0 597.333333 79.530667V157.013333a8.021333 8.021333 0 0 0 7.918934 8.123734h36.283733l2.901333 1.28c41.608533 17.3056 52.906667 58.4704 55.125334 89.514666l0.341333 6.058667 0.119467 5.7344v2.730667l-0.2048 7.509333-0.238934 4.386133-0.477866 5.4784-0.4608 3.9936-1.245867 8.567467-7.082667 4.266667a71.338667 71.338667 0 0 0-33.774933 60.347733c0 38.946133 30.856533 70.1952 68.386133 70.1952h5.000534zM571.733333 571.733333a42.666667 42.666667 0 0 0 2.798934-85.248L571.733333 486.4H204.8a42.666667 42.666667 0 0 0-2.798933 85.248L204.8 571.733333h366.933333zM221.866667 571.733333a42.666667 42.666667 0 0 0 2.798933-85.248L221.866667 486.4h-17.066667a42.666667 42.666667 0 0 0-2.798933 85.248L204.8 571.733333h17.066667zM418.133333 401.066667a42.666667 42.666667 0 0 0 2.798934-85.248L418.133333 315.733333H204.8a42.666667 42.666667 0 0 0-2.798933 85.248L204.8 401.066667h213.333333zM221.098667 401.066667a42.666667 42.666667 0 0 0 2.798933-85.248l-2.798933-0.085334H204.8a42.666667 42.666667 0 0 0-2.798933 85.248L204.8 401.066667h16.298667z"  horiz-adv-x="1024" />

    
    <glyph glyph-name="7-yuzhishenpi" unicode="&#59404;" d="M601.122133 746.973867c124.8256-32.750933 224.4608-126.941867 265.728-247.261867 20.9408-61.013333 26.862933-128.750933 13.431467-198.6048-30.754133-148.718933-153.8048-271.803733-302.472533-302.592C306.090667-52.736 75.383467 183.176533 126.634667 449.8432c30.754133 148.718933 148.667733 271.803733 302.472533 302.592 60.228267 11.349333 118.4256 8.618667 171.997867-5.444267z m-21.674666-82.5344a303.530667 303.530667 0 0 1-133.5808 4.283733c-117.640533-23.534933-211.285333-118.340267-235.4176-235.008-40.192-209.066667 140.509867-391.168 350.0544-351.624533 115.3536 23.876267 212.343467 120.900267 235.9808 235.127466 10.24 53.282133 6.417067 105.966933-10.3424 154.811734-32.3072 94.190933-110.370133 167.133867-206.677334 192.4096zM576.238933 564.7872a34.133333 34.133333 0 0 0 50.261334-46.114133l-1.979734-2.167467-88.388266-88.3712a34.133333 34.133333 0 0 0-46.097067-1.9968l-2.167467 1.9968-85.333333 85.333333a34.133333 34.133333 0 0 0 46.097067 50.261334l2.167466-1.9968L512 500.565333l64.238933 64.238934zM614.4 452.266667a34.133333 34.133333 0 0 0 2.56-68.181334L614.4 384H409.6a34.133333 34.133333 0 0 0-2.56 68.181333L409.6 452.266667h204.8zM614.4 349.866667a34.133333 34.133333 0 0 0 2.56-68.181334L614.4 281.6H409.6a34.133333 34.133333 0 0 0-2.56 68.181333L409.6 349.866667h204.8zM512 460.8a34.133333 34.133333 0 0 0 34.048-31.573333l0.085333-2.56v-221.866667a34.133333 34.133333 0 0 0-68.181333-2.56L477.866667 204.8v221.866667a34.133333 34.133333 0 0 0 34.133333 34.133333zM512 460.8a34.133333 34.133333 0 0 0 34.048-31.573333l0.085333-2.56V384a34.133333 34.133333 0 0 0-68.181333-2.56L477.866667 384v42.666667a34.133333 34.133333 0 0 0 34.133333 34.133333zM526.250667 514.781867a34.133333 34.133333 0 0 0 50.261333-46.097067l-1.9968-2.167467-38.382933-38.4a34.133333 34.133333 0 0 0-50.261334 46.114134l1.9968 2.167466 38.382934 38.4z"  horiz-adv-x="1024" />

    
    <glyph glyph-name="8-susheguanli" unicode="&#59405;" d="M743.645867 657.066667c66.525867 0 107.502933-32.938667 109.226666-108.6464l0.0512-5.000534v-297.198933h-87.415466l-0.017067 307.370667-0.119467 4.130133c-0.426667 8.704-2.2016 11.076267-9.3184 11.707733l-3.3792 0.170667-6.468266 0.0512H255.812267l-3.754667-0.119467c-7.8848-0.4096-10.154667-2.218667-10.8032-10.0352l-0.170667-3.754666-0.068266-4.539734v-304.981333H153.6V543.402667c0 77.568 39.560533 112.162133 104.96 113.595733l4.3008 0.0512h480.785067zM267.246933 202.513067a43.707733 43.707733 0 0 0 43.605334-40.840534l0.1024-2.8672v-52.445866a43.707733 43.707733 0 0 0-87.330134-2.884267l-0.085333 2.884267v52.445866a43.707733 43.707733 0 0 0 43.690667 43.690667zM721.800533 202.513067a43.707733 43.707733 0 0 0 43.605334-40.840534l0.1024-2.8672v-52.445866a43.707733 43.707733 0 0 0-87.330134-2.884267l-0.085333 2.884267v52.445866a43.707733 43.707733 0 0 0 43.690667 43.690667zM613.154133 499.712c31.266133 0 54.596267-27.306667 56.1152-59.562667l0.085334-3.362133v-85.674667h-52.462934v85.674667c0 6.075733-2.3552 9.6256-3.413333 10.3424l-0.341333 0.136533H393.386667c-0.682667 0-3.106133-2.884267-3.652267-8.328533l-0.1024-2.1504v-85.674667h-52.445867v85.674667c0 32.597333 22.289067 60.9792 52.992 62.839467l3.208534 0.085333h219.784533zM713.045333 403.5584a139.861333 139.861333 0 0 0 139.8784-139.861333v-87.415467a52.445867 52.445867 0 0 0-52.462933-52.445867H206.045867A52.445867 52.445867 0 0 0 153.6 176.298667v87.415466a139.861333 139.861333 0 0 0 139.861333 139.861334H713.045333z m0-87.415467H293.461333a52.445867 52.445867 0 0 1-52.360533-49.3568l-0.085333-3.072v-52.462933h524.4928v52.445867a52.445867 52.445867 0 0 1-49.373867 52.360533l-3.072 0.085333zM197.307733 270.6944a43.707733 43.707733 0 0 0 43.6224-40.840533l0.085334-2.8672v-48.0768a43.707733 43.707733 0 0 0-87.330134-2.8672L153.6 178.909867V226.986667a43.707733 43.707733 0 0 0 43.707733 43.707733z m611.908267-6.997333a43.707733 43.707733 0 0 0 43.605333-40.823467l0.1024-2.884267 1.7408-41.079466a43.707733 43.707733 0 0 0-87.313066-2.8672l-0.1024 2.8672-1.7408 41.079466a43.707733 43.707733 0 0 0 43.690666 43.707734zM375.466667 467.626667a25.6 25.6 0 0 0 25.480533-23.1424l0.119467-2.4576v-50.176a25.6 25.6 0 0 0-51.080534-2.4576l-0.119466 2.4576V442.026667a25.6 25.6 0 0 0 25.6 25.6z m273.066666 0a25.6 25.6 0 0 0 25.480534-23.1424l0.119466-2.4576v-50.176a25.6 25.6 0 0 0-51.080533-2.4576l-0.119467 2.4576V442.026667a25.6 25.6 0 0 0 25.6 25.6z"  horiz-adv-x="1024" />

    
    <glyph glyph-name="10-guanliyuangongju" unicode="&#59406;" d="M529.066667 562.756267c63.522133 0 115.336533-49.6128 115.336533-111.223467 0-30.600533-12.305067-61.576533-32.290133-85.265067l2.389333-0.802133 2.3552-0.989867 35.293867-16.298666c31.0784-14.353067 54.6816-48.452267 56.456533-81.7152l0.1024-3.9936v-21.674667c0-39.697067-32.802133-71.304533-73.130667-73.181867l-3.805866-0.085333H426.359467c-40.789333 0-74.820267 30.395733-76.8512 69.563733l-0.085334 3.703467v21.674667c0 33.160533 22.391467 67.9936 52.855467 83.899733l3.6864 1.826133 35.242667 16.2816c1.553067 0.7168 3.1744 1.348267 4.8128 1.8432-19.968 23.637333-32.290133 54.613333-32.290134 85.213867 0 61.610667 51.8144 111.223467 115.336534 111.223467z m62.907733-269.397334h-125.917867l-27.477333-12.714666c-4.778667-2.218667-10.120533-9.198933-12.049067-14.557867l-0.5632-1.928533-0.2048-1.6896v-20.48l0.170667 0.187733 0.426667 0.0512h205.653333l0.170667-0.0512 0.170666-0.187733v20.48c0 4.1472-4.352 11.52-9.1648 15.701333l-1.826133 1.416533-1.809067 1.041067-27.579733 12.731733zM529.066667 488.055467c-21.725867 0-38.997333-16.554667-38.997334-36.522667 0-24.8832 22.152533-52.360533 38.997334-52.360533 16.8448 0 38.997333 27.477333 38.997333 52.360533 0 19.968-17.271467 36.522667-38.997333 36.522667zM670.549333 293.2736c20.1216 0 36.608-14.199467 38.058667-32.2048l0.1024-2.594133v-20.224c0-19.217067-17.083733-34.798933-38.178133-34.798934-20.1216 0-36.608 14.199467-38.058667 32.2048l-0.1024 2.594134v20.224c0 19.217067 17.083733 34.816 38.161067 34.816z m-282.965333 0c20.138667 0 36.625067-14.199467 38.075733-32.2048l0.1024-2.594133v-20.224c0-19.217067-17.083733-34.798933-38.161066-34.798934-20.138667 0-36.625067 14.199467-38.075734 32.2048l-0.1024 2.594134v20.224c0 19.217067 17.083733 34.816 38.178134 34.816zM815.4112 759.466667C836.352 759.466667 853.333333 742.673067 853.333333 721.954133v-679.509333c0-20.718933-16.981333-37.512533-37.922133-37.512533H208.5888c-20.9408 0-37.922133 16.7936-37.922133 37.512533V721.954133C170.666667 742.673067 187.648 759.466667 208.5888 759.466667h606.8224z m-56.900267-93.764267H265.489067v-566.9888h493.021866V665.7024z"  horiz-adv-x="1024" />

    
    <glyph glyph-name="9-baoanguanli" unicode="&#59407;" d="M144.896 489.130667c0-100.5568 62.805333-217.634133 156.381867-310.8864 8.209067-8.192 16.554667-16.093867 24.9856-23.722667l10.171733-9.045333 10.274133-8.738134c142.609067-119.1936 309.623467-158.4128 413.252267-55.125333 19.882667 19.746133 36.2496 52.087467 36.2496 88.029867 0 8.362667-0.887467 16.725333-2.730667 25.053866-7.560533 34.577067-42.666667 83.370667-82.176 113.3568-56.132267 42.615467-119.842133 48.1792-169.864533-2.1504l-4.027733-4.113066c-13.038933-13.585067-22.459733-25.838933-28.6208-37.5808l-1.348267-2.696534 0.8192-0.392533c-21.179733 10.103467-46.848 28.8768-71.099733 53.026133l-3.6352 3.703467c-20.053333 20.650667-35.669333 42.171733-44.970667 59.016533l-2.474667 4.608 3.208534 1.450667c13.636267 6.417067 27.8528 17.169067 43.554133 32.955733 23.381333 23.552 35.396267 51.780267 35.396267 81.9712 0 75.434667-85.572267 159.709867-148.821334 173.431467-45.687467 9.949867-89.122133-9.386667-115.234133-35.549867-39.765333-39.5776-59.306667-90.0096-59.306667-146.602666z m85.333333 0c0 34.594133 11.042133 63.112533 34.269867 86.237866 7.697067 7.714133 24.5248 15.189333 36.778667 12.526934 3.857067-0.836267 10.410667-4.096 18.1248-9.045334l5.973333-4.010666c8.192-5.7344 17.1008-12.970667 25.173333-20.906667 20.701867-20.411733 32.3584-41.301333 32.3584-56.081067 0-7.304533-2.8672-14.045867-10.5984-21.845333a126.020267 126.020267 0 0 0-14.506666-12.817067l-2.491734-1.723733 0.5632-0.068267a55.722667 55.722667 0 0 1-8.567466 0.904534 48.64 48.64 0 0 1-29.969067-9.130667l-2.730667-2.116267-1.8432-1.5872c-13.5168-12.202667-19.268267-28.808533-19.268266-46.660266 0-41.386667 33.194667-98.986667 83.421866-149.0944 71.850667-71.594667 154.0608-110.813867 195.549867-65.262934 8.874667 9.915733 13.141333 21.640533 13.141333 33.928534l-0.0512 3.072-0.085333 1.058133 1.024 1.4848c1.826133 2.679467 4.488533 5.9904 8.055467 9.949867l4.7104 5.051733 2.696533 2.7648c15.172267 15.240533 32.1536 13.755733 57.7536-5.666133 12.8512-9.745067 25.463467-23.04 35.618133-37.154134 8.362667-11.6224 13.8752-22.391467 14.7968-26.624 0.512-2.304 0.750933-4.437333 0.750934-6.656 0-10.5984-6.0416-22.528-11.093334-27.579733-70.980267-70.7072-216.132267-25.088-338.261333 96.597333-78.984533 78.728533-131.310933 176.213333-131.310933 250.453334zM747.8272 591.121067a42.666667 42.666667 0 0 0 2.816-85.230934l-2.816-0.1024h-186.709333a42.666667 42.666667 0 0 0-2.798934 85.248l2.816 0.085334h186.709334zM836.266667 758.1696a42.666667 42.666667 0 0 0 2.798933-85.230933l-2.798933-0.1024H561.134933a42.666667 42.666667 0 0 0-2.816 85.248l2.816 0.085333H836.266667zM499.7632 236.0832l0.034133 0.426667c0 21.7088 10.581333 41.745067 33.8432 66.0992l3.9936 4.096a42.666667 42.666667 0 1 0 60.535467-60.142934l-2.491733-2.542933-4.2496-4.573867c-1.877333-2.116267-3.413333-3.976533-4.642134-5.5808l-1.211733-1.6384 0.034133-2.013866c0-12.014933-4.215467-23.534933-12.629333-32.938667a42.666667 42.666667 0 0 0-73.216 38.8096z m-132.1984 241.544533c5.6832 5.7344 7.5776 10.171733 7.5776 15.018667 0 6.587733-3.413333 15.6672-10.581333 26.0608a42.666667 42.666667 0 0 0 70.263466 48.418133c16.213333-23.552 25.6512-48.622933 25.6512-74.496 0-27.716267-11.042133-53.640533-32.324266-75.093333a42.666667 42.666667 0 0 0-62.651734 57.856l2.065067 2.235733z"  horiz-adv-x="1024" />

    
    <glyph glyph-name="11-zhuye" unicode="&#59408;" d="M506.0608 771.549867l-4.898133-0.1024c-29.354667-1.245867-57.344-13.6704-77.550934-34.440534l-1.860266-1.962666L159.709867 480.597333c-25.856-26.453333-33.109333-64.136533-19.268267-97.262933l1.6384-3.549867c13.329067-26.845867 45.943467-43.861333 77.448533-49.066666l1.1264-0.1536v-218.2144c0-63.829333 51.285333-115.592533 115.063467-115.592534h350.72l4.0448 0.068267c61.969067 2.133333 111.752533 53.0432 111.752533 115.524267V330.496l1.0752 0.136533c32.853333 5.4272 66.8672 23.620267 78.967467 52.48a88.1664 88.1664 0 0 1-18.056533 96.375467l-1.501867 1.467733L591.1552 734.208l1.809067-1.979733a115.7632 115.7632 0 0 1-81.749334 39.202133l-5.154133 0.119467z m-0.1536-85.333334c8.925867-0.034133 17.237333-3.7888 22.903467-10.274133l1.450666-1.570133 1.536-1.4848 271.394134-253.0816 0.136533-0.187734-2.321067-1.058133c-6.3488-2.628267-14.0288-4.283733-17.8688-4.283733h-23.552a42.666667 42.666667 0 0 1-42.666666-42.666667v-259.259733c0-16.622933-13.704533-30.2592-30.498134-30.2592H335.701333c-16.452267 0-29.696 13.380267-29.696 30.2592V371.677867a42.666667 42.666667 0 0 1-42.666666 42.666666h-23.637334c-3.805867 0-11.502933 1.672533-17.885866 4.317867l-2.2528 1.024 0.392533 0.477867L481.8944 674.474667l2.116267 2.218666a29.917867 29.917867 0 0 0 21.896533 9.5232zM512 256a42.666667 42.666667 0 0 0 42.581333-39.867733L554.666667 213.333333v-170.666666a42.666667 42.666667 0 0 0-85.248-2.798934L469.333333 42.666667V213.333333a42.666667 42.666667 0 0 0 42.666667 42.666667zM512 102.4a42.666667 42.666667 0 0 0 42.581333-39.867733L554.666667 59.733333v-17.066666a42.666667 42.666667 0 0 0-85.248-2.798934L469.333333 42.666667v17.066666a42.666667 42.666667 0 0 0 42.666667 42.666667z"  horiz-adv-x="1024" />

    
    <glyph glyph-name="12-changguirenwu" unicode="&#59409;" d="M258.56 699.511467l-4.625067-0.1024c-26.0608-1.194667-49.117867-12.6976-67.242666-32.733867l-2.030934-2.372267 1.4848 1.604267c-20.0192-20.0192-31.266133-49.681067-31.266133-79.4624V119.466667c0-28.450133 10.24-54.4768 28.672-76.5952a100.437333 100.437333 0 0 1 77.3632-36.471467H765.44a100.437333 100.437333 0 0 1 77.3632 36.471467c18.432 22.1184 28.672 48.145067 28.672 76.5952V591.837867l-0.443733 3.003733-0.853334 5.307733c-4.164267 23.04-13.909333 45.4144-28.791466 62.020267l-2.013867 2.0992 1.092267-1.2288a100.437333 100.437333 0 0 1-77.3632 36.471467H258.56z m0-85.333334h504.541867c4.437333 0 8.6016-1.911467 11.793066-5.751466l1.245867-1.501867 1.365333-1.365333 1.092267-1.245867c2.56-3.310933 5.205333-9.216 6.826667-15.786667l0.699733-3.242666V119.466667c0-7.611733-2.730667-14.609067-8.874667-21.9648a15.138133 15.138133 0 0 0-11.810133-5.768534H260.9152a15.138133 15.138133 0 0 0-11.810133 5.768534c-6.144 7.355733-8.891733 14.353067-8.891734 21.9648V586.4448c0 8.004267 2.952533 15.803733 6.280534 19.114667l1.365333 1.365333 1.245867 1.501867c3.857067 4.642133 6.109867 5.751467 9.454933 5.751466zM618.359467 448.3072a42.666667 42.666667 0 0 0 62.429866-58.112l-2.082133-2.218667-170.666667-170.666666a42.666667 42.666667 0 0 0-58.112-2.0992l-2.218666 2.082133-102.4 102.4a42.666667 42.666667 0 0 0 58.094933 62.429867l2.218667-2.082134L477.866667 307.797333l140.4928 140.509867zM413.320533 312.0128a42.666667 42.666667 0 0 0 58.112 2.082133l2.218667-2.082133 34.389333-34.372267a42.666667 42.666667 0 0 0-58.112-62.429866l-2.218666 2.082133-34.389334 34.389333a42.666667 42.666667 0 0 0 0 60.330667zM375.466667 768a42.666667 42.666667 0 0 0 42.581333-39.867733L418.133333 725.333333v-136.533333a42.666667 42.666667 0 0 0-85.248-2.798933L332.8 588.8v136.533333A42.666667 42.666667 0 0 0 375.466667 768zM375.466667 708.266667a42.666667 42.666667 0 0 0 42.581333-39.867734l0.085333-2.798933v-34.133333a42.666667 42.666667 0 0 0-85.248-2.798934L332.8 631.466667v34.133333A42.666667 42.666667 0 0 0 375.466667 708.266667zM648.533333 768a42.666667 42.666667 0 0 0 42.581334-39.867733L691.2 725.333333v-136.533333a42.666667 42.666667 0 0 0-85.248-2.798933L605.866667 588.8v136.533333A42.666667 42.666667 0 0 0 648.533333 768zM648.533333 708.266667a42.666667 42.666667 0 0 0 42.581334-39.867734l0.085333-2.798933v-34.133333a42.666667 42.666667 0 0 0-85.248-2.798934L605.866667 631.466667v34.133333A42.666667 42.666667 0 0 0 648.533333 708.266667z"  horiz-adv-x="1024" />

    
    <glyph glyph-name="13-xitongxiaoxi-icon" unicode="&#59410;" d="M480.7168 715.1104c-181.026133 0-328.226133-147.2-328.226133-328.192l0.1024-7.765333c1.262933-54.186667 15.854933-106.7008 42.564266-153.668267l1.314134-2.235733-20.548267-68.539734a74.581333 74.581333 0 0 1 18.705067-74.154666 74.24 74.24 0 0 1 52.736-21.879467l4.317866 0.119467a75.264 75.264 0 0 1 17.015467 2.986666l80.981333 24.32 7.338667-3.106133a328.4992 328.4992 0 0 1 123.6992-24.337067c181.026133 0.034133 328.226133 147.217067 328.226133 328.209067 0 179.0976-144.042667 325.085867-322.389333 328.192l-5.8368 0.0512z m0-85.333333c133.888 0 242.8928-108.987733 242.8928-242.909867 0-133.853867-109.0048-242.858667-242.909867-242.875733-37.4272 0-74.922667 8.9088-108.5952 25.770666l-15.1552 7.611734-93.559466-28.074667 26.112 87.022933-11.127467 16.6912a240.384 240.384 0 0 0-40.5504 133.888c0 132.096 106.120533 239.957333 237.550933 242.824534l5.341867 0.0512zM747.6736 674.133333a116.206933 116.206933 0 1 0 0-232.3968 116.206933 116.206933 0 0 0 0 232.3968z m0-34.133333a82.0736 82.0736 0 1 1 0-164.130133 82.0736 82.0736 0 0 1 0 164.130133zM750.933333 640a85.333333 85.333333 0 1 1 0-170.666667 85.333333 85.333333 0 0 1 0 170.666667zM594.432 484.4032a42.666667 42.666667 0 0 0 2.798933-85.248l-2.798933-0.085333H376.558933a42.666667 42.666667 0 0 0-2.816 85.248l2.816 0.085333H594.432zM443.733333 484.4032a42.666667 42.666667 0 0 0 2.798934-85.248l-2.798934-0.085333h-68.266666a42.666667 42.666667 0 0 0-2.798934 85.248l2.798934 0.085333h68.266666zM492.7488 353.672533a42.666667 42.666667 0 0 0 2.816-85.230933l-2.816-0.1024h-116.189867a42.666667 42.666667 0 0 0-2.816 85.248l2.816 0.085333h116.189867zM409.6 353.672533a42.666667 42.666667 0 0 0 2.798933-85.230933l-2.798933-0.1024h-34.133333a42.666667 42.666667 0 0 0-2.798934 85.248l2.798934 0.085333h34.133333z"  horiz-adv-x="1024" />

    
    <glyph glyph-name="14-zhishiku" unicode="&#59411;" d="M720.5888 760.4224H303.4112a126.1056 126.1056 0 0 1-126.122667-126.122667v-500.616533a126.1056 126.1056 0 0 1 126.122667-126.1056h417.1776a126.1056 126.1056 0 0 1 126.122667 126.122667V634.299733a126.1056 126.1056 0 0 1-126.122667 126.1056z m-417.1776-85.333333h417.1776c22.528 0 40.789333-18.261333 40.789333-40.789334v-500.616533c0-22.528-18.261333-40.772267-40.789333-40.772267H303.4112a40.772267 40.772267 0 0 0-40.789333 40.789334V634.299733c0 22.510933 18.261333 40.772267 40.789333 40.772267zM537.6 691.2v-112.366933l20.718933 12.424533a42.666667 42.666667 0 0 0 41.147734 1.501867l2.747733-1.501867 20.718933-12.424533V691.2h85.333334v-187.733333c0-32.221867-34.133333-52.462933-62.1568-37.956267l-2.4576 1.365333L580.266667 504.917333l-63.3856-38.0416c-27.613867-16.571733-62.549333 2.286933-64.512 33.792L452.266667 503.466667V691.2h85.333333zM558.318933 591.2576a42.666667 42.666667 0 0 0 46.353067-71.594667l-2.4576-1.5872-55.9104-33.553066a42.666667 42.666667 0 0 0-46.353067 71.594666l2.440534 1.5872 55.927466 33.553067z"  horiz-adv-x="1024" />

    
    <glyph glyph-name="15-chehuixiaoxi" unicode="&#59412;" d="M513.450667 750.933333C319.419733 750.933333 162.133333 593.646933 162.133333 399.616c0-194.030933 157.2864-351.317333 351.317334-351.317333 95.044267 0 181.248 37.717333 244.497066 99.037866l7.7824 7.7824a350.1568 350.1568 0 0 1 99.037867 244.497067C864.768 593.646933 707.4816 750.933333 513.450667 750.933333z m0-85.333333c146.909867 0 265.984-119.0912 265.984-265.984 0-146.909867-119.074133-265.984-265.984-265.984-146.8928 0-265.984 119.074133-265.984 265.984 0 146.8928 119.0912 265.984 265.984 265.984zM463.4112 564.804267c21.777067 16.503467 52.736 1.962667 54.647467-24.593067l0.1024-2.6112-0.017067-31.146667 3.362133-0.682666c91.2896-19.6608 165.290667-81.2544 185.0368-163.618134l0.8192-3.6864 5.137067-19.268266 0.6656-2.577067a34.133333 34.133333 0 0 0-66.184533-16.725333l-5.632 21.162666-0.4608 1.962667c-13.312 63.197867-79.2064 112.366933-160.085334 120.064a34.133333 34.133333 0 0 0-29.3376 23.7056l-0.733866 2.781867-52.872534-40.055467 52.855467-40.055467 0.631467 2.338134a34.1504 34.1504 0 0 0 30.139733 24.1664l2.542933 0.1024a34.133333 34.133333 0 0 0 34.030934-31.573334l0.1024-2.56v-60.535466c0-27.323733-30.276267-43.229867-52.616534-28.706134l-2.133333 1.501867-142.677333 108.100267a34.133333 34.133333 0 0 0-2.167467 52.6336l2.1504 1.774933 142.6944 108.100267zM484.010667 416.068267a34.133333 34.133333 0 0 0 34.048-31.573334l0.1024-2.56v-60.535466a34.133333 34.133333 0 0 0-68.181334-2.56l-0.085333 2.56v60.535466a34.133333 34.133333 0 0 0 34.133333 34.133334z"  horiz-adv-x="1024" />

    
    <glyph glyph-name="16-bianji" unicode="&#59413;" d="M603.648 703.965867c28.791467 27.579733 77.294933 28.4672 107.349333 2.6624l2.952534-2.679467 51.473066-49.322667a73.898667 73.898667 0 0 0 5.905067-101.410133l-2.935467-3.362133-2.901333-2.935467-399.189333-382.498133-180.701867-17.732267 18.653867 174.592L603.648 703.9488z m-22.101333-135.901867L284.552533 283.511467l-4.846933-45.346134 48.8448 4.778667 296.157867 283.767467-43.1616 41.352533z m77.243733 74.0352l-17.425067-16.674133 43.195734-41.3696 17.408 16.708266-43.178667 41.335467zM251.972267 365.2608a42.666667 42.666667 0 0 0 58.760533-61.7984l-2.218667-2.0992-24.234666-21.469867a42.666667 42.666667 0 0 0-58.760534 61.815467l2.218667 2.0992 24.234667 21.4528zM681.813333 687.240533a42.666667 42.666667 0 0 0 58.112 2.082134l2.218667-2.082134 31.8976-31.880533a76.8 76.8 0 0 0 2.730667-105.745067l-2.730667-2.8672-50.193067-50.193066A42.666667 42.666667 0 0 0 661.418667 554.666667l2.082133 2.218666 44.151467 44.1856-25.838934 25.821867a42.666667 42.666667 0 0 0-2.082133 58.112l2.082133 2.218667z"  horiz-adv-x="1024" />

    
    <glyph glyph-name="19-qiehuancaozuo-icon" unicode="&#59414;" d="M598.698667 699.511467a85.333333 85.333333 0 0 0 84.9408-77.0048l0.273066-3.754667 0.119467-4.437333v-109.5168a41.4208 41.4208 0 0 0-82.3808-6.314667l-0.341333 2.747733-0.170667 3.584v109.5168a3.003733 3.003733 0 0 1-0.8704 2.030934l-0.341333 0.238933-1.2288 0.136533H247.6032a3.072 3.072 0 0 1-2.065067-0.853333l-0.238933-0.341333-0.136533-1.2288v-459.9808c0-0.853333 0.4608-1.655467 0.853333-2.030934l0.3584-0.238933 1.2288-0.136533h65.826133a41.4208 41.4208 0 0 0 41.386667-39.406934 41.437867 41.437867 0 0 0-35.037867-42.837333l-2.781866-0.375467-3.566934-0.170666h-65.826133a85.333333 85.333333 0 0 0-84.9408 77.021866l-0.290133 3.754667-0.1024 4.437333V614.314667a85.282133 85.282133 0 0 0 77.141333 84.804266l3.754667 0.290134 4.437333 0.1024H598.698667z m219.374933-458.752a41.4208 41.4208 0 0 0 41.693867-39.389867 41.437867 41.437867 0 0 0-35.328-42.9056l-2.798934-0.341333-3.515733-0.136534-272.776533-0.017066 12.151466-12.305067c13.9264-14.216533 15.598933-36.010667 4.778667-52.053333l-1.809067-2.474667-2.013866-2.372267a41.5232 41.5232 0 0 0-54.749867-5.632l-2.4064 1.8432-2.816 2.56-71.560533 72.3968a41.5744 41.5744 0 0 0-3.3792 3.857067l-0.341334 0.4608-0.802133 0.477867a41.335467 41.335467 0 0 0-18.773333 37.205333l0.273066 2.952533 0.512 2.9696a41.4208 41.4208 0 0 0 34.065067 32.3584l3.037867 0.392534 3.584 0.170666h372.974933z m-113.425067 204.373333a41.489067 41.489067 0 0 0 54.596267 5.802667l2.679467-2.0992 2.816-2.56L836.266667 373.9136c1.211733-1.211733 2.338133-2.5088 3.413333-3.874133l0.324267-0.4608 0.8192-0.494934a41.335467 41.335467 0 0 0 18.773333-37.205333l-0.273067-2.952533-0.512-2.9696a41.4208 41.4208 0 0 0-34.065066-32.3584l-3.037867-0.392534-3.584-0.170666H445.098667a41.4208 41.4208 0 0 0-41.3696 39.424 41.437867 41.437867 0 0 0 35.037866 42.837333l2.7648 0.3584 3.584 0.170667 272.759467 0.034133-12.117333 12.2368a41.352533 41.352533 0 0 0-4.949334 52.1728l1.826134 2.474667 2.030933 2.389333zM758.3232 393.6768a42.666667 42.666667 0 0 0 58.094933 2.082133l2.235734-2.082133 30.72-30.72a42.666667 42.666667 0 0 0-58.112-62.4128l-2.218667 2.082133-30.72 30.72a42.666667 42.666667 0 0 0 0 60.330667zM413.559467 226.440533a42.666667 42.666667 0 0 0 58.112 2.082134l2.218666-2.082134 30.72-30.72a42.666667 42.666667 0 0 0-58.094933-62.4128l-2.235733 2.082134-30.72 30.72a42.666667 42.666667 0 0 0 0 60.330666z"  horiz-adv-x="1024" />

    
    <glyph glyph-name="17-gongzuopai" unicode="&#59415;" d="M261.410133 716.544H375.466667v-85.333333h-114.056534a48.2304 48.2304 0 0 1-47.991466-45.090134l-0.085334-2.901333v-398.148267a48.128 48.128 0 0 1 45.1584-47.9744l2.9184-0.085333H759.466667a48.128 48.128 0 0 1 48.042666 45.124267l0.085334 2.901333v398.165333a48.1792 48.1792 0 0 1-45.1584 47.9232l-2.9184 0.085334H648.533333v85.333333h110.967467c72.192 0 131.106133-57.531733 133.341867-129.109333l0.068266-4.232534v-398.165333c-0.034133-72.209067-57.4464-130.986667-129.1776-133.290667l-4.232533-0.068266H261.376a133.461333 133.461333 0 0 0-133.307733 129.143466l-0.068267 4.232534v398.165333c0 72.0896 57.565867 131.0208 129.194667 133.256533l4.215466 0.068267zM426.666667 452.266667a34.133333 34.133333 0 0 0 2.56-68.181334L426.666667 384h-119.466667a34.133333 34.133333 0 0 0-2.56 68.181333L307.2 452.266667h119.466667zM358.4 315.733333a34.133333 34.133333 0 0 0 2.56-68.181333L358.4 247.466667h-51.2a34.133333 34.133333 0 0 0-2.56 68.181333L307.2 315.733333h51.2zM604.228267 520.533333a98.133333 98.133333 0 1 1 0-196.266666 98.133333 98.133333 0 0 1 0 196.266666z m0-68.266666a29.866667 29.866667 0 1 0 0-59.733334 29.866667 29.866667 0 0 0 0 59.733334zM532.48 432.9984a34.133333 34.133333 0 0 0 42.615467-18.176l0.989866-2.474667a29.883733 29.883733 0 0 1 54.784-3.4816l1.0752 2.3552a34.133333 34.133333 0 1 0 63.2832-25.6 98.133333 98.133333 0 0 0-183.415466 3.754667 34.133333 34.133333 0 0 0 20.650666 43.6224zM604.228267 376.5248A162.167467 162.167467 0 0 0 762.88 247.978667a34.133333 34.133333 0 0 0-66.184533-16.554667l-0.6144 2.474667a93.917867 93.917867 0 0 1-183.790934-0.4608l-0.7168-3.959467a34.133333 34.133333 0 0 0-67.413333 10.8544 162.167467 162.167467 0 0 0 160.085333 136.226133zM631.466667 793.6H392.533333a51.2 51.2 0 0 1-51.2-51.2v-119.466667a51.2 51.2 0 0 1 51.2-51.2h238.933334a51.2 51.2 0 0 1 51.2 51.2V742.4a51.2 51.2 0 0 1-51.2 51.2z m-17.066667-68.266667v-85.333333H409.6v85.333333h204.8zM648.533333 725.333333a34.133333 34.133333 0 0 0 34.048-31.573333L682.666667 691.2v-34.133333a34.133333 34.133333 0 0 0-68.181334-2.56L614.4 657.066667v34.133333a34.133333 34.133333 0 0 0 34.133333 34.133333z m-273.066666 0a34.133333 34.133333 0 0 0 34.048-31.573333L409.6 691.2v-34.133333a34.133333 34.133333 0 0 0-68.181333-2.56L341.333333 657.066667v34.133333a34.133333 34.133333 0 0 0 34.133334 34.133333z"  horiz-adv-x="1024" />

    
    <glyph glyph-name="18-fasongxiaoxi-icon" unicode="&#59416;" d="M843.8784 681.608533c33.1776 7.543467 60.996267-24.746667 49.6128-56.029866l-1.024-2.542934-201.6768-465.4592a42.666667 42.666667 0 0 0-59.0336-20.7872l-2.474667 1.416534-201.710933 124.125866a42.666667 42.666667 0 0 0-19.8144 42.8032l0.477867 2.6112-1.672534-0.887466a42.666667 42.666667 0 0 0-39.0144 0.853333l-2.730666 1.604267-217.224534 139.639466c-30.976 19.9168-23.688533 66.56 10.752 76.7488l2.8672 0.750934 682.666667 155.136z m-63.163733-101.853866l-501.469867-113.9712 109.7216-70.536534 163.601067 95.419734a42.666667 42.666667 0 0 0 56.797866-12.868267l1.536-2.474667a42.666667 42.666667 0 0 0-12.868266-56.797866l-2.474667-1.570134-132.9664-77.550933 1.928533-0.631467a42.666667 42.666667 0 0 0 5.239467-2.321066l2.542933-1.450667 159.744-98.304 148.667734 343.057067zM464.776533 296.174933a42.666667 42.666667 0 0 0 65.365334-54.749866l-1.9456-2.338134-139.639467-155.136c-25.5488-28.398933-72.1408-11.400533-74.2912 25.838934l-0.085333 2.696533v139.639467a42.666667 42.666667 0 0 0 85.248 2.798933l0.085333-2.798933v-28.433067l65.262933 72.482133zM302.353067 400.196267a42.666667 42.666667 0 0 0 56.439466 14.318933l2.525867-1.501867 49.629867-31.914666a42.666667 42.666667 0 0 0-43.639467-73.2672l-2.5088 1.4848-49.629867 31.914666a42.666667 42.666667 0 0 0-12.817066 58.965334z"  horiz-adv-x="1024" />

    
    <glyph glyph-name="20-sousuo" unicode="&#59417;" d="M354.954159 765.480635C527.880127 828.432254 719.075556 739.262984 782.027175 566.337016a333.076317 333.076317 0 0 0-62.122667-333.206349 40.634921 40.634921 0 1 0-61.261206 53.410539 251.82273 251.82273 0 0 1 47.006476 252.001524C658.074413 669.289651 513.495365 736.711111 382.748444 689.119492c-130.746921-47.591619-198.168381-192.170667-150.576761-322.917587 47.591619-130.746921 192.154413-198.152127 322.901333-150.576762a40.634921 40.634921 0 1 0 27.794286-76.361143C409.973841 76.312381 218.762159 165.481651 155.81054 338.407619 92.858921 511.349841 182.044444 702.54527 354.954159 765.480635zM489.650794 618.934857a40.634921 40.634921 0 0 0 52.224 23.990857 202.784508 202.784508 0 0 0 120.409396-121.059555 40.634921 40.634921 0 0 0-76.361142-27.794286 121.530921 121.530921 0 0 1-72.281397 72.655238 40.634921 40.634921 0 0 0-23.990857 52.207746zM575.422984 585.354159a40.634921 40.634921 0 0 0 57.213968-5.396318 202.898286 202.898286 0 0 0 34.360889-60.074666 40.634921 40.634921 0 0 0-75.385904-30.281143l-0.975239 2.486857a121.904762 121.904762 0 0 1-16.952888 31.402667l-3.657143 4.648634a40.634921 40.634921 0 0 0 5.396317 57.213969zM659.521016 280.527238a40.634921 40.634921 0 0 0 55.328508 3.835937l2.113016-1.836699 147.21219-137.281016a40.634921 40.634921 0 0 0-53.32927-61.27746l-2.113016 1.836698L661.536508 223.085714a40.634921 40.634921 0 0 0-2.015492 57.441524zM659.521016 280.527238a40.634921 40.634921 0 0 0 55.328508 3.835937l2.113016-1.836699 44.308317-41.333841a40.634921 40.634921 0 0 0-53.313016-61.261206l-2.113016 1.836698L661.536508 223.085714a40.634921 40.634921 0 0 0-2.015492 57.441524z"  horiz-adv-x="1024" />

    
    <glyph glyph-name="1-xiaoshoushenpi" unicode="&#59418;" d="M747.741867 750.933333c52.992 0 96.017067-41.540267 96.017066-92.501333v-546.645333c0-41.540267-35.259733-75.264-78.506666-75.264H259.259733c-52.906667 0-95.914667 41.540267-95.914666 92.484266V658.449067c0 51.029333 43.008 92.484267 95.914666 92.484266h488.465067z m1.877333-85.4528l-1.877333 0.119467h-488.448c-5.768533 0-9.659733-3.140267-10.461867-6.075733l-0.1536-1.0752v-529.442134c0-2.798933 3.293867-6.280533 8.533333-7.0144l2.065067-0.136533H758.442667V658.432c0 2.833067-3.3792 6.365867-8.8064 7.048533zM265.403733 576.290133a39.697067 39.697067 0 0 1-2.594133-79.291733l2.594133-0.085333h381.0304a39.697067 39.697067 0 0 1 2.6112 79.291733l-2.6112 0.085333H265.403733zM233.659733 577.9968a39.697067 39.697067 0 0 1-2.6112-79.291733l2.6112-0.085334h15.872a39.697067 39.697067 0 0 1 2.6112 79.291734l-2.6112 0.085333h-15.872zM265.557333 425.472a39.697067 39.697067 0 0 1-2.901333-79.274667l2.6112-0.1024 142.882133-0.512a39.697067 39.697067 0 0 1 2.901334 79.274667l-2.6112 0.1024-142.882134 0.512zM233.659733 425.472a39.697067 39.697067 0 0 1-2.6112-79.291733l2.6112-0.085334h15.872a39.697067 39.697067 0 0 1 2.6112 79.291734l-2.6112 0.085333h-15.872zM585.233067 408.3712a57.412267 57.412267 0 0 1-47.547734-30.583467l-15.496533-29.4912-34.7648-4.7616a57.1392 57.1392 0 0 1-46.882133-39.150933l-0.9728-3.362133a56.541867 56.541867 0 0 1 16.708266-55.927467l23.210667-21.282133-5.4272-29.9008a56.832 56.832 0 0 1 22.357333-55.978667 57.344 57.344 0 0 1 34.167467-11.264l3.822933 0.119467c7.645867 0.512 15.1552 2.542933 22.0672 6.024533l32.085334 15.906133 32.426666-16.042666a57.668267 57.668267 0 0 1 59.8016 5.239466l2.696534 2.0992A56.661333 56.661333 0 0 1 703.146667 193.877333l-5.461334 29.934934 23.2448 21.2992a56.558933 56.558933 0 0 1 15.735467 59.272533l-1.092267 3.106133a57.070933 57.070933 0 0 1-45.824 36.061867l-34.7648 4.744533-15.445333 29.457067a57.344 57.344 0 0 1-50.944 30.72l-3.362133-0.1024z m-22.016-118.5792l25.378133 48.384 25.3952-48.384 53.7088-7.338667-38.741333-35.515733 9.437866-52.0192-49.851733 24.661333-49.7664-24.661333 9.472 52.0192-38.7584 35.5328L563.2 289.792z"  horiz-adv-x="1024" />

    
    <glyph glyph-name="shijian" unicode="&#58887;" d="M511.374563-126.356695c-282.20091 0-510.976 228.77509-510.976 510.982132C0.398563 666.826347 229.173653 895.601437 511.374563 895.601437c282.207042 0 510.982132-228.77509 510.982132-510.976a510.976 510.976 0 0 0-510.982132-510.982132zM511.374563 818.954731c-239.873533 0-434.329293-194.45576-434.329294-434.329294s194.45576-434.335425 434.329294-434.335425 434.335425 194.45576 434.335425 434.335425c0 239.873533-194.45576 434.329293-434.335425 434.329294zM754.093222 307.978731H473.05121a38.323353 38.323353 0 0 0-38.323354 38.323353V627.337964a38.323353 38.323353 0 1 0 76.646707 0v-242.712527h242.718659a38.323353 38.323353 0 1 0 0-76.646706z"  horiz-adv-x="1024" />

    
    <glyph glyph-name="anquanyanzheng" unicode="&#58888;" d="M512.000031 895.601437c15.194443 0 29.855425-5.610539 41.162347-15.758563a561.771305 561.771305 0 0 1 374.74721-143.310946A43.99521 43.99521 0 0 0 971.88027 692.487665v-94.815042c0.091976-292.643257-155.568287-563.224527-408.606659-710.257437-31.70721-18.39521-70.839952-18.39521-102.547161 0C207.681947 34.448095999999964 52.021683 305.029365 52.119791 597.6726229999999V692.487665a43.99521 43.99521 0 0 0 43.964551 44.025868A561.771305 561.771305 0 0 1 470.843815 879.812216 61.531976 61.531976 0 0 0 512.000031 895.601437zM512.000031 813.846994a637.240719 637.240719 0 0 0-383.233533-153.293413v-62.930012c0.404695-265.166946 141.410108-510.227928 370.461125-643.832335a25.550946 25.550946 0 0 1 25.544815 0c229.051018 133.604407 370.056431 378.665389 370.461126 643.832335V660.553581a637.240719 637.240719 0 0 0-383.233533 153.293413M679.114378 445.709796l-193.965222-202.163353a36.330539 36.330539 0 0 0-52.886227 0l-88.174371 91.976048a40.138347 40.138347 0 0 0 0 55.124311 36.361198 36.361198 0 0 0 52.916886 0l61.697533-64.321916L626.234282 500.91382a36.330539 36.330539 0 0 0 52.886228 0 40.138347 40.138347 0 0 0 0-55.210155z"  horiz-adv-x="1024" />

    
    <glyph glyph-name="bianji" unicode="&#58889;" d="M169.819429 34.82819c-19.44381 0-38.217143 7.801905-51.992381 21.76a73.124571 73.124571 0 0 0-20.845715 55.710477l12.982857 207.177143c1.097143 17.737143 8.655238 34.438095 21.211429 46.994285l488.96 488.96c52.540952 52.540952 137.99619 52.540952 190.476191 0l110.08-110.08c52.540952-52.540952 52.540952-137.99619 0-190.47619l-488.716191-488.716191a72.704 72.704 0 0 0-48.152381-21.272381l-210.651428-9.935238c-1.097143-0.121905-2.255238-0.121905-3.352381-0.121905zM715.40419 821.723429c-15.786667 0-31.512381-5.973333-43.52-17.980953l-488.96-488.96-12.921904-207.055238 210.346666 10.179048 488.655238 488.655238c24.015238 24.015238 24.015238 63.024762 0 87.04l-110.08 110.08a61.44 61.44 0 0 1-43.52 18.041905zM975.000381-122.185143H45.903238c-20.175238 0-36.571429 16.39619-36.571428 36.571429s16.39619 36.571429 36.571428 36.571428h929.097143c20.175238 0 36.571429-16.39619 36.571429-36.571428s-16.39619-36.571429-36.571429-36.571429zM655.061333 641.304381a48.944762 48.944762 0 1 1 97.889524 0 48.944762 48.944762 0 0 1-97.889524 0z"  horiz-adv-x="1024" />

    
    <glyph glyph-name="dingdan" unicode="&#58890;" d="M881.125966 800.056407h-126.293333c-19.612203 55.654689-72.721356 95.631186-134.9713 95.631186h-224.932881c-62.249944 0-115.359096-39.976497-134.971299-95.631186h-120.334464c-38.298757 0-69.423729-31.124972-69.423729-69.423729v-787.265085c0-38.298757 31.124972-69.423729 69.423729-69.423729h741.503277c38.298757 0 69.423729 31.124972 69.423729 69.423729V730.632678c0 38.240904-31.182825 69.423729-69.423729 69.423729zM394.928452 826.263864h224.875028c40.612881 0 73.647006-33.034124 73.647006-73.647005 0-40.612881-33.034124-73.647006-73.647006-73.647006h-224.875028c-40.612881 0-73.647006 33.034124-73.647006 73.647006 0 40.612881 33.034124 73.647006 73.647006 73.647005zM881.125966-56.69026H139.622689V730.632678h113.970622c10.587119-68.498079 69.944407-121.144407 141.392994-121.144407h224.875028c71.448588 0 130.805876 52.588475 141.392995 121.144407h119.871638v-787.322938zM654.688904 309.381062a34.711864 34.711864 0 1 0 0-69.423729h-300.836158a34.711864 34.711864 0 0 0 0 69.423729h300.836158z m-82.440678 196.700565a36.158192 36.158192 0 1 0 0-72.316384h-216.949153a36.158192 36.158192 0 1 0 0 72.316384h216.949153z"  horiz-adv-x="1024" />

    
    <glyph glyph-name="faxian" unicode="&#58891;" d="M510.365091-122.973091c-280.843636 0-509.323636 228.48-509.323636 509.323636S229.521455 895.674182 510.365091 895.674182s509.323636-228.48 509.323636-509.323637-228.48-509.323636-509.323636-509.323636zM510.365091 825.797818c-242.327273 0-439.505455-197.178182-439.505455-439.505454 0-242.327273 197.178182-439.505455 439.505455-439.505455 242.327273 0 439.505455 197.178182 439.505454 439.505455 0 242.385455-197.178182 439.505455-439.505454 439.505454zM332.386909 164.096c-12.101818 0-24.029091 4.770909-32.872727 13.672727a46.376727 46.376727 0 0 0-10.298182 49.745455l96.989091 245.818182c4.654545 11.752727 13.963636 21.178182 25.658182 25.949091l258.443636 105.250909a46.312727 46.312727 0 0 0 50.269091-10.123637 46.434909 46.434909 0 0 0 10.24-50.269091l-102.283636-252.450909a46.429091 46.429091 0 0 0-26.123637-25.774545l-253.207272-98.676364c-5.469091-2.094545-11.170909-3.141818-16.814546-3.141818z m115.083636 274.269091l-73.6-186.589091 193.745455 75.461818 77.672727 191.650909-197.818182-80.523636z"  horiz-adv-x="1024" />

    
    <glyph glyph-name="fenlei" unicode="&#58892;" d="M386.973892 455.238515H73.703473c-40.592096 0-73.580838 32.988743-73.580838 73.580838v293.158324c0 40.592096 32.988743 73.580838 73.580838 73.580838h313.270419c40.592096 0 73.580838-32.988743 73.580839-73.580838v-293.158324c0-40.530778-32.988743-73.580838-73.580839-73.580838zM73.703473 821.977677v-293.158324h313.331737l-0.061318 293.158324zM972.248144 455.238515h-313.270419c-40.592096 0-73.580838 32.988743-73.580839 73.580838v293.158324c0 40.592096 32.988743 73.580838 73.580839 73.580838h313.270419c40.592096 0 73.580838-32.988743 73.580838-73.580838v-293.158324c0-40.530778-32.988743-73.580838-73.580838-73.580838zM658.977725 821.977677v-293.158324h313.331736l-0.061317 293.158324zM386.973892-123.358275H73.703473c-40.592096 0-73.580838 32.988743-73.580838 73.580838v293.158323c0 40.592096 32.988743 73.580838 73.580838 73.580839h313.270419c40.592096 0 73.580838-32.988743 73.580839-73.580839v-293.158323c0-40.530778-32.988743-73.580838-73.580839-73.580838zM73.703473 243.380886v-293.158323h313.331737l-0.061318 293.158323zM803.38012-113.976719c-130.115449 0-235.949222 105.833772-235.949222 235.949222 0 130.115449 105.833772 235.949222 235.949222 235.949222 130.115449 0 235.949222-105.833772 235.949221-235.949222 0-130.115449-105.89509-235.949222-235.949221-235.949222z m0 398.256288c-89.523353 0-162.368383-72.84503-162.368383-162.368383s72.84503-162.368383 162.368383-162.368384 162.368383 72.84503 162.368383 162.368384-72.84503 162.368383-162.368383 162.368383z"  horiz-adv-x="1048" />

    
    <glyph glyph-name="gouwu" unicode="&#58893;" d="M286.948894 123.873882c-36.382118 0-67.704471 27.166118-72.764235 63.247059l-89.569883 635.482353c-0.060235 0.602353-0.602353 1.024-1.204705 1.024H18.118776a18.070588 18.070588 0 0 0-18.070588 18.070588v36.141177a18.070588 18.070588 0 0 0 18.070588 18.070588h105.291295c36.442353 0 67.704471-27.166118 72.764235-63.247059l13.914353-98.966588h812.694588c22.226824 0 43.008-9.878588 56.982588-27.105882 14.034824-17.227294 19.516235-39.574588 14.998589-61.31953l-95.834353-462.787764c-6.987294-33.972706-37.285647-58.608941-71.981177-58.608942H286.948894zM220.328659 661.413647l65.415529-464.173176c0.060235-0.602353 0.602353-1.084235 1.204706-1.084236h640c0.602353 0 1.084235 0.421647 1.204706 0.963765l95.834353 462.787765c0.060235 0.240941 0.120471 0.542118-0.240941 1.024-0.361412 0.481882-0.722824 0.481882-0.963765 0.481882H220.328659zM353.930541-126.283294c-57.223529 0-103.785412 46.561882-103.785412 103.785412s46.561882 103.785412 103.785412 103.785411 103.785412-46.561882 103.785412-103.785411-46.561882-103.785412-103.785412-103.785412zM353.930541 9.065412c-17.408 0-31.503059-14.155294-31.503059-31.503059 0-17.408 14.155294-31.503059 31.503059-31.503059 17.408 0 31.503059 14.155294 31.503059 31.503059a31.563294 31.563294 0 0 1-31.503059 31.503059zM863.460894-126.283294c-57.223529 0-103.785412 46.561882-103.785412 103.785412s46.561882 103.785412 103.785412 103.785411 103.785412-46.561882 103.785412-103.785411-46.561882-103.785412-103.785412-103.785412zM863.460894 9.065412c-17.408 0-31.503059-14.155294-31.503059-31.503059 0-17.408 14.155294-31.503059 31.503059-31.503059 17.408 0 31.503059 14.155294 31.503059 31.503059a31.563294 31.563294 0 0 1-31.503059 31.503059zM367.435294 362.730918m33.129412 0l427.670588 0q33.129412 0 33.129412-33.129412l0 0q0-33.129412-33.129412-33.129412l-427.670588 0q-33.129412 0-33.129412 33.129412l0 0q0 33.129412 33.129412 33.129412Z"  horiz-adv-x="1102" />

    
    <glyph glyph-name="jifen" unicode="&#58894;" d="M511.143774-123.001492c-276.769266 0-493.602712 118.59887-493.602712 269.942599 0 53.629831 27.19096 104.945537 78.622373 148.393221a34.665582 34.665582 0 0 0 44.778305 0c76.771073-64.853333 218.626893-105.176949 370.202034-105.176949 151.575141 0 293.373107 40.323616 370.202034 105.176949a34.665582 34.665582 0 0 0 44.778305 0c51.431412-43.447684 78.622373-94.76339 78.622373-148.393221 0-151.401582-216.833446-269.942599-493.602712-269.942599zM121.040271 223.13365c-18.165876-19.959322-34.07548-46.051073-34.07548-76.250396 0-96.846102 170.435254-200.51887 424.178983-200.51887 253.743729 0 424.178983 103.672768 424.178983 200.51887 0 30.199322-15.851751 56.291073-34.07548 76.250396-92.275706-64.564068-235.115028-102.457853-390.103503-102.457853-155.046328 0-297.88565 37.893785-390.103503 102.457853zM511.143774 120.675797c-276.769266 0-493.602712 118.59887-493.602712 269.942598 0 51.489266 25.339661 101.185085 73.242034 143.591413a34.758147 34.758147 0 0 0 46.051073 0c75.787571-67.167458 219.263277-108.879548 374.309605-108.879548 155.046328 0 298.522034 41.71209 374.309605 108.879548a34.758147 34.758147 0 0 0 46.051073 0c47.902373-42.464181 73.242034-92.102147 73.242034-143.591413 0-151.343729-216.833446-269.942599-493.602712-269.942598zM116.585582 461.662011c-16.025311-18.975819-29.620791-43.216271-29.620791-71.043616 0-96.846102 170.435254-200.51887 424.178983-200.51887 253.743729 0 424.178983 103.672768 424.178983 200.51887 0 27.769492-13.59548 52.067797-29.620791 71.043616-92.044294-66.64678-236.387797-105.75548-394.616045-105.75548-158.228249 0-302.513898 39.108701-394.500339 105.75548zM511.143774 355.906531c-276.769266 0-493.602712 118.59887-493.602712 269.942599 0 151.343729 216.833446 269.942599 493.602712 269.942599 276.769266 0 493.602712-118.59887 493.602712-269.942599 0-151.343729-216.833446-269.942599-493.602712-269.942599zM511.143774 826.368c-253.743729 0-424.178983-103.672768-424.178983-200.51887 0-96.846102 170.435254-200.51887 424.178983-200.51887 253.743729 0 424.178983 103.672768 424.178983 200.51887 0 96.846102-170.435254 200.51887-424.178983 200.51887z"  horiz-adv-x="1024" />

    
    <glyph glyph-name="kefu-3" unicode="&#58895;" d="M52.677042 492.916364l22.49697 79.096242 52.360533 86.059442 70.314667 85.476073 86.04703 73.771443 145.246643 31.650909L560.512776 859.694545l148.467588-25.606206 98.254351-46.173091 84.998206-89.125236 62.40194-81.038739 34.362957-65.337406 27.592146-85.103709 17.302497-62.687419-17.302497-134.503951H52.677042zM1014.461285 208.852558c-20.542061 0-37.236364 16.694303-37.236364 37.236363v124.431515c0 248.676848-202.317576 450.994424-450.994424 450.994425s-451.056485-202.317576-451.056485-450.994425v-93.773575c0-20.542061-16.694303-37.236364-37.236364-37.236364s-37.236364 16.694303-37.236363 37.236364v93.773575c0 289.76097 235.706182 525.467152 525.467151 525.467152 289.76097 0 525.467152-235.706182 525.467152-525.467152v-124.431515c0.062061-20.542061-16.632242-37.236364-37.174303-37.236363zM959.537648-125.095564h-134.671515c-50.827636 0-92.097939 41.332364-92.097939 92.09794v276.852363c0 50.765576 41.332364 92.097939 92.097939 92.09794h189.595152c20.542061 0 37.236364-16.694303 37.236363-37.236364v-331.713939c0-50.765576-41.332364-92.097939-92.16-92.09794zM824.859927 261.542012c-9.743515 0-17.625212-7.943758-17.625212-17.625212v-276.852364c0-9.743515 7.943758-17.625212 17.625212-17.625212h134.671515c9.743515 0 17.625212 7.943758 17.625213 17.625212v294.477576h-152.296728zM227.470739-125.095564h-134.671515c-50.765576 0-92.097939 41.332364-92.097939 92.09794v331.713939c0 20.542061 16.694303 37.236364 37.236363 37.236364h189.595152c50.827636 0 92.097939-41.332364 92.097939-92.09794v-276.852363c0-50.765576-41.332364-92.097939-92.16-92.09794zM75.174012 261.542012v-294.477576c0-9.743515 7.943758-17.625212 17.625212-17.625212h134.671515c9.743515 0 17.625212 7.943758 17.625213 17.625212v276.852364c0 9.743515-7.943758 17.625212-17.625213 17.625212h-152.296727z"  horiz-adv-x="1055" />

    
    <glyph glyph-name="hongbao" unicode="&#58896;" d="M796.218182-125.003636h-568.436364c-83.432727 0-151.272727 67.84-151.272727 151.272727V744c0 83.432727 67.84 151.272727 151.272727 151.272727h568.436364c83.432727 0 151.272727-67.84 151.272727-151.272727v-717.730909c0-83.374545-67.84-151.272727-151.272727-151.272727zM227.781818 825.454545c-44.916364 0-81.454545-36.538182-81.454545-81.454545v-717.730909c0-44.916364 36.538182-81.454545 81.454545-81.454546h568.436364c44.916364 0 81.454545 36.538182 81.454545 81.454546V744c0 44.916364-36.538182 81.454545-81.454545 81.454545h-568.436364zM366.312727 441.28a34.501818 34.501818 0 0 0-18.967272 5.643636l-238.545455 154.763637c-16.174545 10.472727-20.770909 32.116364-10.298182 48.290909 10.472727 16.174545 32.116364 20.770909 48.290909 10.298182l238.545455-154.763637c16.174545-10.472727 20.770909-32.116364 10.298182-48.290909a34.839273 34.839273 0 0 0-29.323637-15.941818z m276.887273-9.076364c-11.403636 0-22.516364 5.527273-29.207273 15.767273-10.589091 16.116364-6.050909 37.76 10.065455 48.349091l269.381818 176.64c16.116364 10.589091 37.76 6.050909 48.349091-10.065455 10.589091-16.116364 6.050909-37.76-10.065455-48.34909l-269.381818-176.64c-5.934545-3.898182-12.567273-5.701818-19.141818-5.701819zM512 310.138182c-91.578182 0-166.050909 74.530909-166.050909 166.050909 0 91.52 74.472727 166.109091 166.050909 166.109091 91.578182 0 166.050909-74.472727 166.050909-166.050909 0-91.578182-74.472727-166.109091-166.050909-166.109091z m0 262.341818c-53.061818 0-96.232727-43.170909-96.232727-96.232727s43.170909-96.232727 96.232727-96.232728 96.232727 43.170909 96.232727 96.232728c0 53.003636-43.170909 96.232727-96.232727 96.232727z"  horiz-adv-x="1024" />

    
    <glyph glyph-name="shaixuan" unicode="&#58897;" d="M555.08071-125.224899c-16.844497 0-33.688994 4.726154-48.836923 14.178461l-142.390533 88.766864c-27.266272 16.96568-43.504852 46.292071-43.504852 78.405681v414.507929c0 5.271479-2.060118 10.179408-5.756213 13.936094L61.561183 737.601136a92.214533 92.214533 0 0 0-20.055858 100.703432c14.360237 34.658462 47.867456 57.016805 85.373728 57.016805h750.307219c38.778698 0 72.710059-23.448994 86.464379-59.743432 13.693728-36.294438 3.756686-76.345562-25.327337-101.975858l-284.053965-250.304379c-4.24142-3.756686-6.665089-9.088757-6.665089-14.784379v-501.154082c0-34.052544-17.753373-64.287811-47.564497-80.768758-14.178462-7.876923-29.568757-11.815385-44.959053-11.815384zM126.939645 822.611314c-11.875976 0-16.662722-8.48284-18.177515-12.178935-1.514793-3.635503-4.120237-13.087811 4.24142-21.449468l253.031006-253.031006c17.450414-17.450414 27.084497-40.657041 27.084497-65.317869v-414.507929c0-6.846864 3.453728-13.087811 9.270533-16.723314l142.390532-88.766864c8.906982-5.513846 16.905089-2.181302 19.995267-0.484734 3.029586 1.696568 10.118817 6.786272 10.118816 17.208048v501.154082c0 26.539172 11.391243 51.805917 31.325917 69.316924l284.053965 250.304378c9.209941 8.11929 6.846864 17.935148 5.392663 21.752426-1.454201 3.817278-6.119763 12.72426-18.419882 12.724261H126.939645zM949.351006 298.856521h-196.923077c-20.055858 0-36.35503 16.299172-36.35503 36.355029s16.299172 36.35503 36.35503 36.35503h196.923077c20.055858 0 36.35503-16.299172 36.35503-36.35503s-16.299172-36.35503-36.35503-36.355029z m0-141.178699h-196.923077c-20.055858 0-36.35503 16.299172-36.35503 36.35503s16.299172 36.35503 36.35503 36.35503h196.923077c20.055858 0 36.35503-16.299172 36.35503-36.35503s-16.299172-36.35503-36.35503-36.35503z m0-141.118106h-196.923077c-20.055858 0-36.35503 16.299172-36.35503 36.35503s16.299172 36.35503 36.35503 36.355029h196.923077c20.055858 0 36.35503-16.299172 36.35503-36.355029s-16.299172-36.35503-36.35503-36.35503z"  horiz-adv-x="1024" />

    
    <glyph glyph-name="riqi" unicode="&#58898;" d="M920.159042-126.356695H102.596216A102.197653 102.197653 0 0 0 0.398563-24.159042V716.757078a102.197653 102.197653 0 0 0 102.197653 102.197653h127.742467v38.323353a38.323353 38.323353 0 1 0 76.646706 0v-38.323353h408.784479v38.323353a38.323353 38.323353 0 1 0 76.646707 0v-38.323353h127.742467a102.197653 102.197653 0 0 0 102.197653-102.197653v-740.91612a102.197653 102.197653 0 0 0-102.197653-102.197653zM945.709988 716.757078a25.550946 25.550946 0 0 1-25.550946 25.550946h-127.742467v-38.323353a38.323353 38.323353 0 1 0-76.646707 0v38.323353H306.985389v-38.323353a38.323353 38.323353 0 1 0-76.646706 0v38.323353H102.596216a25.550946 25.550946 0 0 1-25.550947-25.550946v-127.742467h868.664719V716.757078zM945.709988 512.367904H77.045269v-536.526946a25.550946 25.550946 0 0 1 25.550947-25.550946h817.562826a25.550946 25.550946 0 0 1 25.550946 25.550946v536.526946zM702.991329 307.978731h-383.233533a38.323353 38.323353 0 1 0 0 76.646706h383.233533a38.323353 38.323353 0 0 0 0-76.646706z m-383.233533-153.293414h383.233533a38.323353 38.323353 0 0 0 0-76.646706h-383.233533a38.323353 38.323353 0 0 0 0 76.646706z"  horiz-adv-x="1024" />

    
    <glyph glyph-name="saoyisao" unicode="&#58899;" d="M0 896m122.634731 0l778.730538 0q122.634731 0 122.634731-122.634731l0-778.730538q0-122.634731-122.634731-122.634731l-778.730538 0q-122.634731 0-122.634731 122.634731l0 778.730538q0 122.634731 122.634731 122.634731ZM920.159042-126.356695h-153.293413v76.646707h153.293413a25.550946 25.550946 0 0 1 25.550946 25.550946v166.06582a38.323353 38.323353 0 1 0 76.646707 0v-166.06582a102.197653 102.197653 0 0 0-102.197653-102.197653zM984.033341 589.014611a38.323353 38.323353 0 0 0-38.323353 38.323353V793.403784a25.550946 25.550946 0 0 1-25.550946 25.550947h-166.06582a38.323353 38.323353 0 1 0 0 76.646706h166.06582a102.197653 102.197653 0 0 0 102.197653-102.197653v-166.06582a38.323353 38.323353 0 0 0-38.323354-38.323353zM268.662036 818.954731H102.596216a25.550946 25.550946 0 0 1-25.550947-25.550947v-166.06582a38.323353 38.323353 0 1 0-76.646706 0V793.403784A102.197653 102.197653 0 0 0 102.596216 895.601437h166.06582a38.323353 38.323353 0 0 0 0-76.646706zM38.721916 180.230132a38.323353 38.323353 0 0 0 38.323353-38.323354v-166.06582a25.550946 25.550946 0 0 1 25.550947-25.550946h153.293413v-76.646707h-153.293413A102.197653 102.197653 0 0 0 0.398563-24.159042v166.06582a38.323353 38.323353 0 0 0 38.323353 38.323354zM192.015329 422.94879h638.724599c25.544814 0 38.323353-12.778539 38.323353-38.323353 0-25.550946-12.778539-38.323353-38.323353-38.323353H192.015329c-25.550946 0-38.323353 12.772407-38.323353 38.323353 0 25.544814 12.772407 38.323353 38.323353 38.323353z"  horiz-adv-x="1024" />

    
    <glyph glyph-name="shanchu" unicode="&#58900;" d="M933.556886 665.661317h-38.323353v-689.820359a102.197653 102.197653 0 0 0-102.197653-102.197653H230.96412A102.197653 102.197653 0 0 0 128.766467-24.159042v689.820359H90.443114a38.323353 38.323353 0 1 0 0 76.646707h843.113772a38.323353 38.323353 0 1 0 0-76.646707zM818.586826 665.661317H205.413174v-689.820359a25.550946 25.550946 0 0 1 25.550946-25.550946h562.07176a25.550946 25.550946 0 0 1 25.550946 25.550946v689.820359zM626.97006 818.954731h-229.94012a38.323353 38.323353 0 1 0 0 76.646706h229.94012a38.323353 38.323353 0 1 0 0-76.646706zM625.437126 43.688623c-22.012934 0-39.856287 21.105437-39.856288 47.14079V499.350228C585.580838 525.379449 603.424192 546.491018 625.437126 546.491018s39.856287-21.105437 39.856287-47.14079v-408.520815c0-26.035353-17.843353-47.14079-39.856287-47.14079z m-226.874252 0c-22.012934 0-39.856287 21.105437-39.856287 47.14079V499.350228C358.706587 525.379449 376.54994 546.491018 398.562874 546.491018s39.856287-21.105437 39.856288-47.14079v-408.520815c0-26.035353-17.843353-47.14079-39.856288-47.14079z"  horiz-adv-x="1024" />

    
    <glyph glyph-name="shezhi-2" unicode="&#58901;" d="M349.079273-119.249455a537.623273 537.623273 0 0 0-150.865455 87.389091c-22.574545 18.501818-31.185455 49.803636-21.352727 77.847273a149.451636 149.451636 0 0 1-11.403636 124.101818 149.312 149.312 0 0 1-101.527273 72.261818c-29.207273 5.585455-51.956364 28.741818-56.610909 57.6a542.190545 542.190545 0 0 0-0.756364 167.214546c4.363636 29.032727 26.938182 52.421818 56.203636 58.298182a149.527273 149.527273 0 0 1 101.003637 73.134545 149.265455 149.265455 0 0 1 10.414545 124.16c-10.065455 27.927273-1.745455 59.287273 20.712728 78.021818a538.676364 538.676364 0 0 0 154.181818 90.181819c27.52 10.472727 58.821818 2.443636 77.905454-19.84 28.509091-33.338182 69.934545-52.48 113.687273-52.48s85.236364 19.141818 113.687273 52.48c19.083636 22.283636 50.327273 30.312727 77.847272 19.898181a539.677091 539.677091 0 0 0 150.865455-87.330909c22.632727-18.56 31.185455-49.861818 21.352727-77.905454a149.451636 149.451636 0 0 1 11.403637-124.101818 149.312 149.312 0 0 1 101.527272-72.261819c29.207273-5.585455 51.956364-28.741818 56.610909-57.658181a542.190545 542.190545 0 0 0 0.756364-167.156364c-4.363636-29.032727-26.996364-52.421818-56.203636-58.298182a149.288727 149.288727 0 0 1-100.945455-73.134545 149.265455 149.265455 0 0 1-10.414545-124.16c10.065455-27.927273 1.745455-59.287273-20.712728-78.021819a538.676364 538.676364 0 0 0-154.181818-90.181818c-27.52-10.472727-58.821818-2.443636-77.905454 19.84a149.445818 149.445818 0 0 1-113.687273 52.48 149.352727 149.352727 0 0 1-113.687273-52.48 69.876364 69.876364 0 0 0-53.178182-24.436363c-8.32 0-16.64 1.454545-24.727272 4.538181zM540.666182 22.888727c64.232727 0 124.974545-28.043636 166.749091-76.916363a469.911273 469.911273 0 0 1 134.225454 78.545454c-0.116364-0.116364-0.058182 0.290909-0.232727 0.756364a219.229091 219.229091 0 0 0 15.301818 182.109091 219.357091 219.357091 0 0 0 148.072727 107.287272c0.581818 0.116364 0.872727 0.407273 0.93091 0.465455 3.432727 23.098182 5.236364 46.952727 5.236363 70.690909 0 24.843636-1.978182 49.92-5.934545 74.530909a1.524364 1.524364 0 0 1-0.814546 0.349091 219.229091 219.229091 0 0 0-165.701818 288.116364c0.174545 0.523636 0.116364 0.930909 0.058182 0.989091a469.934545 469.934545 0 0 1-131.141818 75.810909 219.333818 219.333818 0 0 0-166.807273-76.858182c-64.232727 0-124.974545 28.043636-166.749091 76.916364a467.234909 467.234909 0 0 1-134.225454-78.545455c0.058182 0.058182 0.058182-0.290909 0.232727-0.814545a219.229091 219.229091 0 0 0-15.301818-182.109091 219.106909 219.106909 0 0 0-148.072728-107.229091c-0.581818-0.116364-0.872727-0.407273-0.930909-0.465455-3.432727-23.098182-5.236364-46.952727-5.236363-70.690909 0-24.901818 2.036364-50.036364 5.992727-74.705454 0 0.174545 0.290909-0.058182 0.814545-0.174546a219.229091 219.229091 0 0 0 165.701819-288.116364c-0.174545-0.523636-0.116364-0.930909-0.058182-0.98909a469.934545 469.934545 0 0 1 131.141818-75.81091 219.118545 219.118545 0 0 0 166.749091 76.858182zM540.666182 166.481455c-120.96 0-219.345455 98.385455-219.345455 219.345454 0 120.96 98.385455 219.345455 219.345455 219.345455 120.96 0 219.345455-98.385455 219.345454-219.345455 0-120.901818-98.385455-219.345455-219.345454-219.345454z m0 368.930909c-82.443636 0-149.527273-67.083636-149.527273-149.527273s67.083636-149.527273 149.527273-149.527273 149.527273 67.083636 149.527273 149.527273-67.083636 149.527273-149.527273 149.527273z"  horiz-adv-x="1082" />

    
    <glyph glyph-name="sousuo" unicode="&#58902;" d="M1011.981796-115.981796a38.323353 38.323353 0 0 0-54.265868 0l-155.18812 155.163592c-198.582419-169.438275-495.530156-151.815665-672.676024 39.917605-177.152 191.739401-171.271665 489.147018 13.312 673.736815 184.589796 184.583665 481.997413 190.464 673.730683 13.312 191.739401-177.145868 209.362012-474.093605 39.923737-672.676024l155.163592-155.18812a38.323353 38.323353 0 0 0 0-54.265868zM776.774515 698.239234c-117.091641 117.097772-293.188982 152.128383-446.188072 88.763017-152.986826-63.371497-252.75018-212.660886-252.75018-378.260694 0-165.593677 99.763353-314.889198 252.75018-378.254563 152.99909-63.371497 329.096431-28.334754 446.188072 88.763018 159.860503 159.891162 159.860503 419.09806 0 578.989222zM367.076407 669.830898v-0.153293a36.29988 36.29988 0 0 0-11.092311-48.391665 248.97303 248.97303 0 0 1-99.640719-150.203018 39.396407 39.396407 0 0 0-41.334036-30.916215 37.937054 37.937054 0 0 0-36.385724 44.025868A323.682108 323.682108 0 0 0 309.775329 682.094371a40.420407 40.420407 0 0 0 57.30721-12.263473z"  horiz-adv-x="1024" />

    
    <glyph glyph-name="shangchuan" unicode="&#58903;" d="M387.523133-54.887832l-128.708923 36.749426-194.746182 128.465455-34.672783 109.861594L80.838713 358.937063l89.725315 61.046154 54.680168 33.949538 33.570014 13.870546 38.374937 45.492811 41.962517 155.254154 114.265511 108.737342 160.42428 67.311889 188.75972-27.04649 142.787133-69.402853 115.096168-140.703329v-110.728056l65.213762-28.915468 104.691468-47.820084L1282.699636 358.937063l45.013035-101.54786-20.730629-103.581539-42.098573-73.019077-84.111217-51.937566-96.148588-19.069315-84.841622-27.920112-38.954965-36.749426zM1083.377678-54.816224h-139.063496c-23.702378 0-42.965035 19.262657-42.965035 42.965035s19.262657 42.965035 42.965035 42.965035h139.063496c107.985455 0 195.848951 87.863497 195.848951 195.848951 0 107.985455-87.863497 195.848951-195.848951 195.848951h-7.017622c-23.415944 0-42.535385 18.761399-42.965035 42.177343-3.58042 189.690629-160.832448 344.006713-350.523077 344.006713-189.690629 0-346.871049-154.387692-350.451468-344.078321a42.979357 42.979357 0 0 0-42.965035-42.177343h-7.017623c-107.985455 0-195.848951-87.863497-195.848951-195.848951 0-107.985455 87.863497-195.848951 195.848951-195.848951h127.033287c23.702378 0 42.965035-19.262657 42.965035-42.965035s-19.262657-42.965035-42.965035-42.965035h-127.033287c-155.39021 0-281.779021 126.388811-281.779021 281.779021 0 144.076084 108.701538 263.232448 248.409511 279.845594 10.956084 99.607273 55.568112 191.838881 127.892587 262.946014C459.09572 850.385455 567.72565 894.854266 682.871944 894.854266s223.776224-44.468811 305.911049-125.171469c72.324476-71.107133 116.936503-163.338741 127.892587-262.946014 139.707972-16.541538 248.40951-135.697902 248.409511-279.845594 0.071608-155.318601-126.317203-281.707413-281.707413-281.707413zM865.831385 231.760559l-152.7407 151.022098a43.029483 43.029483 0 0 1-60.509091-0.071608l-152.096223-151.022098a42.986517 42.986517 0 1 1 60.580699-61.01035l79.198881 78.626014v-323.311888c0-23.702378 19.262657-42.965035 42.965035-42.965035s42.965035 19.262657 42.965035 42.965035v322.953846l79.270489-78.33958a42.979357 42.979357 0 0 1 60.795525 0.358042 43.050965 43.050965 0 0 1-0.42965 60.795524z"  horiz-adv-x="1374" />

    
    <glyph glyph-name="shibai" unicode="&#58904;" d="M511.374563-126.356695c-282.20091 0-510.976 228.77509-510.976 510.982132C0.398563 666.826347 229.173653 895.601437 511.374563 895.601437c282.207042 0 510.982132-228.77509 510.982132-510.976a510.976 510.976 0 0 0-510.982132-510.982132zM511.374563 818.954731c-239.873533 0-434.329293-194.45576-434.329294-434.329294s194.45576-434.335425 434.329294-434.335425 434.335425 194.45576 434.335425 434.335425c0 239.873533-194.45576 434.329293-434.335425 434.329294zM567.584192 385.030132l111.622131-111.622132a39.47612 39.47612 0 1 0-55.823329-55.823329L511.760862 329.206802 400.138731 217.584671a39.47612 39.47612 0 0 0-55.82333 55.823329l111.622132 111.622132-111.622132 111.65279a39.469988 39.469988 0 1 0 55.82333 55.798803L511.754731 440.853461l111.622131 111.628264a39.47612 39.47612 0 1 0 55.82333-55.798803L567.584192 385.030132z"  horiz-adv-x="1024" />

    
    <glyph glyph-name="shouye" unicode="&#58905;" d="M511.374563 895.601437c21.730874 0 42.891497-6.928862 60.397605-19.805509l408.784479-300.246611a102.528766 102.528766 0 0 0 41.800048-82.655808v-516.844072a102.197653 102.197653 0 0 0-102.197653-102.4H103.669269c-56.411976 0.061317-102.124072 45.779545-102.197652 102.191521L0.398563 492.770874a102.528766 102.528766 0 0 0 41.800048 82.827497L450.976958 875.777533a101.909461 101.909461 0 0 0 60.397605 19.823904zM511.374563 818.752383c-5.432719 0-10.724407-1.735281-15.096335-4.960575L87.493749 513.62491a25.70424 25.70424 0 0 1-10.44848-20.725269l0.999474-516.923785a25.550946 25.550946 0 0 1 25.544814-25.550946h816.569485a25.550946 25.550946 0 0 1 25.550946 25.550946V492.899641a25.691976 25.691976 0 0 1-10.448479 20.663952L526.452503 813.853126a25.373126 25.373126 0 0 1-15.07794 4.905389M613.572216-49.709988v255.491066a25.550946 25.550946 0 0 1-25.550947 25.550946h-153.293413a25.550946 25.550946 0 0 1-25.544814-25.550946v-255.491066h-76.646707v255.491066c0 56.442635 45.755018 102.197653 102.191521 102.197653h153.293413c56.442635 0 102.197653-45.755018 102.197653-102.197653v-255.491066h-76.646706z"  horiz-adv-x="1024" />

    
    <glyph glyph-name="shouji" unicode="&#58906;" d="M793.03588-126.356695H230.96412A102.197653 102.197653 0 0 0 128.766467-24.159042V793.403784A102.197653 102.197653 0 0 0 230.96412 895.601437h562.07176A102.197653 102.197653 0 0 0 895.233533 793.403784v-817.562826a102.197653 102.197653 0 0 0-102.197653-102.197653zM818.586826 793.403784a25.550946 25.550946 0 0 1-25.550946 25.550947H230.96412a25.550946 25.550946 0 0 1-25.550946-25.550947v-536.526946h613.173652v536.526946zM205.413174 180.230132v-204.389174a25.550946 25.550946 0 0 1 25.550946-25.550946h562.07176a25.550946 25.550946 0 0 1 25.550946 25.550946v204.389174h-613.173652zM448.125701 65.260072c0-35.27588 28.598419-63.868168 63.874299-63.868168s63.874299 28.592287 63.874299 63.868168-28.598419 63.874299-63.874299 63.874299-63.874299-28.598419-63.874299-63.874299z"  horiz-adv-x="1024" />

    
    <glyph glyph-name="tuijian" unicode="&#58907;" d="M563.353293 895.632096a92.178395 92.178395 0 0 1-98.616718-97.654036c7.916072-86.610778-50.077892-230.4-128.515066-231.086755-41.898156-0.361772-114.454994-0.490539-158.658683-0.490539H115.227593c-56.724695 0-102.706587-45.981892-102.706587-102.706586v-487.344288c0-56.718563 45.981892-102.706587 102.706587-102.706587h662.736479c92.110946 0.030659 170.58491 66.903377 185.227497 157.843162l42.670754 266.957413a187.373605 187.373605 0 0 1-185.233628 217.167713h-124.419066c39.08982 101.866539 38.06582 317.164072-51.610827 359.442395A191.616766 191.616766 0 0 1 563.353293 895.711808v-0.079712zM563.353293 818.954731a116.686946 116.686946 0 0 0 48.544958-13.287474c29.892216-15.329341 48.029892-170.946683 12.514875-262.616143l-40.107689-104.190467h236.323258a111.033485 111.033485 0 0 0 109.60479-128.306587l-42.922156-266.957413c-8.412743-53.836647-54.860647-93.46606-109.347257-93.306635H115.227593a26.139593 26.139593 0 0 0-26.05988 26.05988v487.473054a26.108934 26.108934 0 0 0 26.05988 26.05988h62.335233c44.45509 0 117.269461 0 159.42515 0.490539a162.491018 162.491018 0 0 1 120.083928 59.091545A371.25212 371.25212 0 0 1 541.125749 804.955976a13.305868 13.305868 0 0 0 3.065868 8.124551 27.163593 27.163593 0 0 0 19.161676 5.89873M242.203593 486.816958H318.850299v-536.526946H242.203593z"  horiz-adv-x="1024" />

    
    <glyph glyph-name="tianjia" unicode="&#58908;" d="M511.374563-126.356695c-282.20091 0-510.976 228.77509-510.976 510.982132C0.398563 666.826347 229.173653 895.601437 511.374563 895.601437c282.207042 0 510.982132-228.77509 510.982132-510.976a510.976 510.976 0 0 0-510.982132-510.982132zM511.374563 818.954731c-239.873533 0-434.329293-194.45576-434.329294-434.329294s194.45576-434.335425 434.329294-434.335425 434.335425 194.45576 434.335425 434.335425c0 239.873533-194.45576 434.329293-434.335425 434.329294zM702.991329 346.302084h-153.293413v-153.293413a38.323353 38.323353 0 0 0-76.646706 0v153.293413h-153.293414a38.323353 38.323353 0 1 0 0 76.646706h153.293414v153.293414a38.323353 38.323353 0 1 0 76.646706 0v-153.293414h153.293413a38.323353 38.323353 0 0 0 0-76.646706z"  horiz-adv-x="1024" />

    
    <glyph glyph-name="tupian" unicode="&#58909;" d="M920.159042-126.356695H102.596216A102.197653 102.197653 0 0 0 0.398563-24.159042V793.403784A102.197653 102.197653 0 0 0 102.596216 895.601437h817.562826a102.197653 102.197653 0 0 0 102.197653-102.197653v-817.562826a102.197653 102.197653 0 0 0-102.197653-102.197653zM102.596216-49.709988h817.562826a25.550946 25.550946 0 0 1 25.550946 25.550946v254.111425L811.627305 365.359521a63.586108 63.586108 0 0 1-90.338874 0l-228.689245-230.884407a63.874299 63.874299 0 0 0-91.031761 0l-88.174371 89.008287a63.537054 63.537054 0 0 1-90.332743 0l-146.015042-147.437605v-100.204838a25.550946 25.550946 0 0 1 25.550947-25.550946zM920.159042 818.954731H102.596216a25.550946 25.550946 0 0 1-25.550947-25.550947v-608.059784l91.822755 92.687329a139.521533 139.521533 0 0 0 198.717317 0l79.485701-80.221509 220.006707 222.091497a139.754539 139.754539 0 0 0 198.741844 0l79.890395-80.552622v454.055089a25.550946 25.550946 0 0 1-25.550946 25.550947zM204.787737 614.565557c0-42.333509 34.319329-76.646707 76.646706-76.646707 42.333509 0 76.646707 34.313198 76.646707 76.646707 0 42.327377-34.313198 76.646707-76.646707 76.646706-42.327377 0-76.646707-34.319329-76.646706-76.646706z"  horiz-adv-x="1024" />

    
    <glyph glyph-name="xiaoxi" unicode="&#58910;" d="M275.500247-125.244049c-8.849383 0-17.635556 2.338765-25.66321 7.079506a50.036938 50.036938 0 0 0-24.904691 43.172345l-0.884939 111.944692h-147.911111c-41.844938 0-75.851852 34.006914-75.851852 75.851852V819.680395c0 41.844938 34.006914 75.851852 75.851852 75.851852h961.864692c41.844938 0 75.851852-34.006914 75.851852-75.851852v-706.876049c0-41.844938-34.006914-75.851852-75.851852-75.851852h-451.887408l-286.34074-155.938766c-7.648395-4.171852-15.992099-6.257778-24.272593-6.257777zM76.136296 819.680395v-706.876049h173.068642c27.685926 0 50.315062-22.502716 50.567902-50.188642l0.758518-94.878025 254.988642 138.872099c7.395556 4.045432 15.739259 6.131358 24.209383 6.131358h458.398024l-0.063209 706.876049H76.136296v0.06321zM606.814815 459.851852a37.925926 37.925926 0 1 0 0-75.851852H278.123457a37.925926 37.925926 0 1 0 0 75.851852h328.691358zM516.740741 674.765432a39.506173 39.506173 0 1 0 0-79.012346h-237.037037a39.506173 39.506173 0 1 0 0 79.012346h237.037037z"  horiz-adv-x="1118" />

    
    <glyph glyph-name="tixian" unicode="&#58911;" d="M920.159042 537.91885h-51.095761v-613.173652a51.09576 51.09576 0 0 0-51.101892-51.101893h-613.173652a51.09576 51.09576 0 0 0-51.095761 51.101893v613.173652h-51.09576A102.197653 102.197653 0 0 0 0.398563 640.110371v153.293413A102.197653 102.197653 0 0 0 102.596216 895.601437h817.562826a102.197653 102.197653 0 0 0 102.197653-102.197653v-153.293413a102.197653 102.197653 0 0 0-102.197653-102.191521zM230.338683-49.709988h562.077892V665.661317H230.338683zM945.709988 793.403784a25.550946 25.550946 0 0 1-25.550946 25.550947H102.596216a25.550946 25.550946 0 0 1-25.550947-25.550947v-153.293413a25.550946 25.550946 0 0 1 25.550947-25.544814h51.09576v76.646706a51.09576 51.09576 0 0 0 51.095761 51.095761h613.173652a51.09576 51.09576 0 0 0 51.101892-51.095761v-76.646706h51.095761a25.550946 25.550946 0 0 1 25.550946 25.544814v153.293413zM652.048862 264.541509H548.606467V327.22012h103.442395a36.379593 36.379593 0 1 1 0 72.710131h-57.84067l78.584335 75.297725a31.455808 31.455808 0 0 1 9.688144 22.994012 38.605413 38.605413 0 0 1-63.156887 28.586156L510.736862 422.752575 404.253126 524.931832a39.08982 39.08982 0 0 1-53.474875 0 35.459832 35.459832 0 0 1 0-51.506586L427.271665 400.126467h-57.822276a36.379593 36.379593 0 1 1 0-72.716263h103.448527v-62.874827h-103.442395a36.410251 36.410251 0 1 1 0-72.734658h103.442395v-76.493414a37.894132 37.894132 0 0 1 75.702419 0v76.493414h103.448527a36.410251 36.410251 0 1 1 0 72.734658z"  horiz-adv-x="1024" />

    
    <glyph glyph-name="shipin" unicode="&#58912;" d="M888.911238-128H177.755429C79.634286-127.878095 0.121905-47.73181 0 51.163429v665.6C0.060952 815.701333 79.60381 895.890286 177.755429 896h711.155809c98.133333-0.121905 177.65181-80.26819 177.755429-179.163429v-665.593904c-0.060952-98.937905-79.591619-179.126857-177.755429-179.242667zM196.102095 820.412952c-66.755048-0.11581-120.84419-54.656-120.917333-121.941333v-633.959619c0.073143-67.273143 54.174476-121.776762 120.917333-121.813333h677.36381c66.730667 0.073143 120.807619 54.552381 120.917333 121.813333V698.471619c-0.11581 67.260952-54.186667 121.764571-120.923428 121.880381H196.102095v0.060952zM865.52381 219.428571m36.571428 0l109.714286 0q36.571429 0 36.571428-36.571428l0 0q0-36.571429-36.571428-36.571429l-109.714286 0q-36.571429 0-36.571428 36.571429l0 0q0 36.571429 36.571428 36.571428ZM865.52381 402.285714m36.571428 0l109.714286 0q36.571429 0 36.571428-36.571428l0 0q0-36.571429-36.571428-36.571429l-109.714286 0q-36.571429 0-36.571428 36.571429l0 0q0 36.571429 36.571428 36.571428ZM865.52381 585.142857m36.571428 0l109.714286 0q36.571429 0 36.571428-36.571428l0 0q0-36.571429-36.571428-36.571429l-109.714286 0q-36.571429 0-36.571428 36.571429l0 0q0 36.571429 36.571428 36.571428ZM410.258286 136.338286c-38.601143 0-68.924952 33.475048-68.924953 76.348952V550.253714c0 42.800762 29.96419 76.27581 68.333715 76.27581 12.629333 0 25.313524-3.797333 36.900571-11.044572l265.886476-168.899047c21.61981-13.549714 34.529524-37.49181 34.529524-64.079238 0-27.459048-13.433905-52.266667-36.004571-66.450286l-263.521524-168.685714a70.875429 70.875429 0 0 0-37.199238-11.032381zM415.695238 563.18781c-5.296762 0-11.215238-8.423619-11.215238-20.492191v-317.208381c0-12.330667 6.052571-20.62019 11.690667-20.62019 2.121143 0.14019 4.169143 0.865524 5.912381 2.090666l239.762285 158.549334a23.466667 23.466667 0 0 1 9.679238 19.602285c0 7.478857-3.017143 13.952-8.192 17.322667l-241.92 158.677333a11.117714 11.117714 0 0 1-5.717333 2.072381z"  horiz-adv-x="1066" />

    
    <glyph glyph-name="yinhangka" unicode="&#58913;" d="M0 896m112.562888 0l1027.136354 0q112.562888 0 112.562888-112.562888l0-696.48287q0-112.562888-112.562888-112.562888l-1027.136354 0q-112.562888 0-112.562888 112.562888l0 696.48287q0 112.562888 112.562888 112.562888ZM91.457347 811.577834m56.281444 0l963.819729 0q56.281444 0 56.281444-56.281444l0-640.201426q0-56.281444-56.281444-56.281444l-963.819729 0q-56.281444 0-56.281444 56.281444l0 640.201426q0 56.281444 56.281444 56.281444ZM76.507588 666.653116h1106.282135v-91.534734H76.507588zM154.773971 502.029892m42.211083 0l246.231318 0q42.211083 0 42.211083-42.211083l0 0q0-42.211083-42.211083-42.211083l-246.231318 0q-42.211083 0-42.211083 42.211083l0 0q0 42.211083 42.211083 42.211083Z"  horiz-adv-x="1391" />

    
    <glyph glyph-name="xihuan" unicode="&#58914;" d="M569.049808-127.998839a94.637973 94.637973 0 0 0-67.413257 27.736715L108.530224 290.331993C-31.129565 425.445227-36.454359 647.659801 96.583571 789.306148 223.16348 918.657681 426.870983 931.833133 569.049808 819.855446c142.069599 111.977686 345.715662 98.802235 472.172692-30.549298 133.044756-141.646346 127.726789-363.860921-11.946653-498.974155L636.176346-100.262124A94.467306 94.467306 0 0 0 569.049808-127.998839zM349.74339 811.690762h-2.559997a266.867751 266.867751 0 0 1-189.726505-80.923215c-100.863886-108.68041-96.051091-278.138565 10.806601-380.927568l393.106328-390.600944a9.332043 9.332043 0 0 1 15.073263 0l393.099501 390.600944c107.007879 102.727564 111.820673 272.294945 10.813428 380.927568a265.871059 265.871059 0 0 1-189.726505 80.923215 269.175162 269.175162 0 0 1-191.14645-77.366525 43.943204 43.943204 0 0 0-60.873318 0 266.874578 266.874578 0 0 1-188.866346 77.393832v-0.027307zM229.70342 440.887129a41.867899 41.867899 0 0 0-41.526567 39.342036 237.001118 237.001118 0 0 0 49.206558 180.107742 192.457169 192.457169 0 0 0 129.426627 64.375394 42.666618 42.666618 0 0 0 3.979942-85.053344 112.926592 112.926592 0 0 1-71.679919-36.577238 155.333797 155.333797 0 0 1-27.873248-116.367228 42.270672 42.270672 0 0 0-38.399957-45.684002c-1.140052-0.136533-2.280104-0.136533-3.133436-0.136533z"  horiz-adv-x="1140" />

    
    <glyph glyph-name="wode" unicode="&#58915;" d="M63.647425-122.763497a38.323353 38.323353 0 0 1 32.706683 19.13715 481.59885 481.59885 0 0 0 829.084359 0 38.323353 38.323353 0 0 1 32.700551-19.131018 38.323353 38.323353 0 0 1 32.400096 58.171784 561.385006 561.385006 0 0 1-298.695282 243.301174c153.661317 82.931737 231.356551 259.642251 188.587689 428.933365C837.662659 776.946204 685.368719 895.552383 510.749126 895.552383c-174.607329 0-326.907401-118.612311-369.670132-287.903425-42.768862-169.297246 34.926371-346.001629 188.587689-428.933365a561.483114 561.483114 0 0 1-298.566515-243.380886 38.323353 38.323353 0 0 1 32.547257-58.098204zM205.854659 516.212503c0.91976 168.260982 137.908886 303.999234 306.169868 303.373796 168.260982-0.637701 304.23224-137.406084 303.88273-305.667065-0.349509-168.260982-136.891018-304.459114-305.152-304.391665a305.869413 305.869413 0 0 0-305.029365 306.709461l0.122635-0.024527zM510.755257 311.847856a192.867641 192.867641 0 0 1 143.433581 64.640767 37.379066 37.379066 0 0 1-2.838994 53.321581 38.709653 38.709653 0 0 1-54.112575-2.814467 114.172934 114.172934 0 0 0-172.964023 0 38.703521 38.703521 0 0 1-54.112575 2.814467 37.354539 37.354539 0 0 1-2.838994-53.321581 192.79406 192.79406 0 0 1 143.43358-64.640767z"  horiz-adv-x="1024" />

    
    <glyph glyph-name="wenjian" unicode="&#58916;" d="M493.149384 895.162767H107.758289A107.339673 107.339673 0 0 1 0.418616 787.823094v-805.031446a107.339673 107.339673 0 0 1 107.339673-107.339673h858.698063a107.339673 107.339673 0 0 1 107.339673 107.339673V599.980277a107.339673 107.339673 0 0 1-107.339673 107.339673h-304.327648a26.836528 26.836528 0 0 0-24.666163 16.261635L591.852679 830.116226A107.339673 107.339673 0 0 1 493.149384 895.162767zM493.149384 814.659623a26.836528 26.836528 0 0 0 24.691924-16.261636l45.616302-106.534641a107.339673 107.339673 0 0 1 98.664654-65.046541h304.334088a26.836528 26.836528 0 0 0 26.836529-26.836528v-617.188629a26.836528 26.836528 0 0 0-26.836529-26.836529H107.758289a26.836528 26.836528 0 0 0-26.836528 26.836529v805.031446a26.836528 26.836528 0 0 0 26.836528 26.836529h385.391095M228.513006 653.653333h187.836378c26.836528 0 40.251572-13.421484 40.251572-40.251572 0-26.836528-13.415044-40.251572-40.251572-40.251572H228.513006c-26.836528 0-40.251572 13.415044-40.251572 40.251572 0 26.830088 13.415044 40.251572 40.251572 40.251572z"  horiz-adv-x="1075" />

    
    <glyph glyph-name="yinliang" unicode="&#58917;" d="M593.424954 895.043815a111.466808 111.466808 0 0 1-67.16355-22.602596l-216.728583-161.60212H113.467338C51.098278 710.839099 0.522172 660.324026 0.440795 597.961748v-423.108662c0.09494-62.355497 50.671046-112.857007 113.026543-112.857007h196.011232l216.721801-161.595337a111.473589 111.473589 0 0 1 67.16355-22.602596 113.026543 113.026543 0 0 1 113.4809 112.680688V781.651073A113.026543 113.026543 0 0 1 593.363921 894.677616l0.061033 0.366199zM593.363921 810.106066a28.258331 28.258331 0 0 0 28.712688-28.454993v-791.172239a28.258331 28.258331 0 0 0-28.712688-28.258331 26.725722 26.725722 0 0 0-16.445034 5.825272l-216.721801 161.568212-22.602596 16.953642h-224.127152a28.258331 28.258331 0 0 0-28.258331 28.258331v422.823841a28.258331 28.258331 0 0 0 28.258331 28.25155H337.648742l22.602596 16.953642 216.728583 161.60212a26.90204 26.90204 0 0 0 16.445033 5.81849M1130.909669 386.068344a499.400053 499.400053 0 0 1-147.808636 353.707232 44.981404 44.981404 0 0 1-64.647629-1.668238 41.312636 41.312636 0 0 1 1.607205-57.357563 414.34702 414.34702 0 0 0 0-589.335735 41.312636 41.312636 0 0 1-1.607205-57.364345 45.015311 45.015311 0 0 1 64.674755-1.661457 499.48143 499.48143 0 0 1 147.78151 353.680106zM802.293828 609.686887a41.733086 41.733086 0 0 1 0.65102-56.516662c86.124503-94.736954 86.124503-239.419338 0-334.156291a41.787338 41.787338 0 0 1-0.65102-56.509881 44.499921 44.499921 0 0 1 64.986702-1.186755c117.319205 126.901404 117.319205 322.682066 0 449.58347a44.499921 44.499921 0 0 1-64.986702-1.07147v-0.142411z"  horiz-adv-x="1132" />

    


  </font>
</defs>
</svg>
